<svg width="106" height="106" viewBox="0 0 106 106" fill="none" xmlns="http://www.w3.org/2000/svg">
<circle cx="53" cy="53" r="51.5" fill="#EAEAEA" stroke="#202E3B" stroke-width="3"/>
<path d="M28.176 36.168H42L40.752 42.12C42.928 40.2 44.88 38.728 46.608 37.704C48.4 36.68 50.32 36.168 52.368 36.168C54.416 36.168 56.016 36.872 57.168 38.28C58.384 39.688 58.992 41.384 58.992 43.368C58.992 45.224 58.384 46.856 57.168 48.264C55.952 49.672 54.256 50.376 52.08 50.376C50.672 50.376 49.712 50.056 49.2 49.416C48.752 48.712 48.4 47.72 48.144 46.44C47.952 45.608 47.76 45 47.568 44.616C47.376 44.232 47.024 44.04 46.512 44.04C45.168 44.04 44.016 44.328 43.056 44.904C42.16 45.416 40.976 46.344 39.504 47.688L31.824 84.168H18L28.176 36.168Z" fill="#202E3B"/>
<path d="M69.6458 84.744C66.3818 84.744 63.9498 83.752 62.3498 81.768C60.8138 79.784 60.0457 77.16 60.0457 73.896C60.0457 72.232 60.2377 70.536 60.6217 68.808L66.7658 40.008H63.5978L64.3658 36.168H67.5338L70.4138 22.92L84.6217 21C84.0458 23.432 83.7258 24.872 83.6618 25.32C83.2138 27.112 82.4458 30.728 81.3577 36.168H87.1178L86.3498 40.008H80.5898L74.4458 68.808C74.1258 70.216 73.9658 71.336 73.9658 72.168C73.9658 74.472 75.0858 75.624 77.3258 75.624C78.4778 75.624 79.3098 75.528 79.8218 75.336C78.5418 79.048 77.0378 81.544 75.3098 82.824C73.5818 84.104 71.6938 84.744 69.6458 84.744Z" fill="#202E3B"/>
<path d="M12 84L94 84" stroke="#202E3B" stroke-width="3"/>
</svg>
