<svg width="47" height="69" viewBox="0 0 47 69" fill="none" xmlns="http://www.w3.org/2000/svg">
<g id="r">
<path id="Richard Tsang" d="M31 69L46.22 69L41.5919 59H31V69Z" fill="black"/>
<path id="Richard Tsang_2" d="M36.501 48H31V59H41.5919L36.501 48Z" fill="black"/>
<path id="Richard Tsang_3" d="M20.8725 48L29.696 69L31 69V59V48H27H20.8725Z" fill="black"/>
<path id="Richard Tsang_4" d="M34.124 42.864C36.4852 42.3327 38.3627 41.3782 39.756 40H32H27V48H31H36.501L34.124 42.864Z" fill="black"/>
<path id="Richard Tsang_5" d="M16.196 43.296H18.896L20.8725 48H27V40H22H16.196V43.296Z" fill="black"/>
<path id="Richard Tsang_6" d="M16.196 69V62H13V58H6V69H16.196Z" fill="black"/>
<path id="Richard Tsang_7" d="M16.196 44H10V52H13V58V62H16.196V44Z" fill="black"/>
<path id="Richard Tsang_8" d="M0.859985 44V69H6V58H13V52H10V44H0.859985Z" fill="black"/>
<path id="Richard Tsang_9" d="M0.859985 28H9V40H16.196V43.296V44H10H0.859985V28Z" fill="black"/>
<path id="Richard Tsang_10" d="M8 16H16.196V28H9H0.859985V22H8V16Z" fill="black"/>
<path id="Richard Tsang_11" d="M0.859985 9H6V16H8V22H0.859985V9Z" fill="black"/>
<path id="Richard Tsang_12" d="M16.196 32.388V28H9V40H16.196H22V32.388H16.196Z" fill="black"/>
<path id="Richard Tsang_13" d="M26.672 31.848C26.24 32.208 25.52 32.388 24.512 32.388H22V40H27H32V31.416V29H27.32V29.796C27.32 30.732 27.104 31.416 26.672 31.848Z" fill="black"/>
<path id="Richard Tsang_14" d="M42.764 31.416H32V40H39.756C41.7615 38.0162 42.764 35.1546 42.764 31.416Z" fill="black"/>
<path id="Richard Tsang_15" d="M42.764 31.416V21H32V29V31.416H42.764Z" fill="black"/>
<path id="Richard Tsang_16" d="M32 14.352H27.32V29H32V21V14.352Z" fill="black"/>
<path id="Richard Tsang_17" d="M32 5V14.352V21H42.764V12.192H36V5H32Z" fill="black"/>
<path id="Richard Tsang_18" d="M42.764 12.192C42.764 9.2472 42.1369 6.84987 40.8827 5H36V12.192H42.764Z" fill="black"/>
<path id="Richard Tsang_19" d="M29.156 5V0.311981C34.8549 0.311981 38.7638 1.87465 40.8827 5H36H32H29.156Z" fill="black"/>
<path id="Richard Tsang_20" d="M24.512 11.652C26.384 11.652 27.32 12.552 27.32 14.352H32V5H29.156H24V8H20.078V11.652H24.512Z" fill="black"/>
<path id="Richard Tsang_21" d="M29.156 0.311981H20.078V8H24V5H29.156V0.311981Z" fill="black"/>
<path id="Richard Tsang_22" d="M20.078 0.311981H11V4H13V8H20.078V0.311981Z" fill="black"/>
<path id="Richard Tsang_23" d="M8 5H11V4H13V8H20.078V11.652H16.196V16H8H6V9H8V5Z" fill="black"/>
<path id="Richard Tsang_24" d="M11 0.311981H0.859985V9H6H8V5H11V4V0.311981Z" fill="black"/>
</g>
</svg>
