<svg viewBox="0 0 612 612" fill="none" xmlns="http://www.w3.org/2000/svg">
<g id="skill-icon">
<path id="computer" d="M596.7 459.125H364.848C364.14 478.084 350.781 489.75 333.54 489.75H275.4C257.528 489.75 243.825 473.031 244.064 459.125H15.3C6.885 459.125 0 466.016 0 474.438V489.75C0 523.438 27.54 551 61.2 551H550.8C584.46 551 612 523.438 612 489.75V474.438C612 466.016 605.115 459.125 596.7 459.125ZM553.8 106.938C553.8 81.6719 533.145 61 507.9 61H110.1C84.855 61 64.2 81.6719 64.2 106.938V428.5H553.8V106.938ZM492.6 367.25H125.4V122.25H492.6V367.25Z" fill="currentColor"/>
<path id="arrow-right" d="M343.393 278.543L370.52 251.417L377.629 244.307L343.624 210.303C337.766 204.445 337.766 194.947 343.624 189.09L355.32 177.393C361.178 171.536 370.675 171.536 376.533 177.393L432.913 233.773C438.771 239.631 438.771 249.129 432.913 254.986L421.217 266.683L411.52 276.235L376.303 311.452C370.445 317.31 360.947 317.31 355.09 311.452L343.393 299.756C337.536 293.898 337.536 284.401 343.393 278.543Z" fill="currentColor"/>
<path id="arrow-left" d="M277.126 278.756L250 251.63L242.891 244.521L276.896 210.516C282.754 204.658 282.754 195.161 276.896 189.303L265.2 177.607C259.342 171.749 249.844 171.749 243.986 177.607L187.607 233.986C181.749 239.844 181.749 249.342 187.607 255.2L199.303 266.896L209 276.448L244.217 311.665C250.075 317.523 259.572 317.523 265.43 311.665L277.126 299.969C282.984 294.111 282.984 284.614 277.126 278.756Z" fill="currentColor"/>
</g>
</svg>
