<svg width="512" height="512" viewBox="0 0 512 512" fill="none" xmlns="http://www.w3.org/2000/svg">
<path fill-rule="evenodd" clip-rule="evenodd" d="M232.557 1.59965C182.841 6.40965 133.562 26.6246 94.921 58.0606C83.555 67.3076 65.559 85.4467 56.494 96.7957C33.573 125.49 14.79 164.303 7 199.066C2.108 220.902 1 231.517 1 256.566C1 281.615 2.108 292.23 7 314.066C14.96 349.587 34.233 388.955 57.916 418.066C67.163 429.432 85.302 447.428 96.651 456.493C125.345 479.414 164.158 498.197 198.921 505.987C220.757 510.879 231.372 511.987 256.421 511.987C281.47 511.987 292.085 510.879 313.921 505.987C340.058 500.13 374.233 485.526 396.691 470.617C435.641 444.758 465.556 410.735 485.981 369.066C498.492 343.541 505.598 320.681 510.074 291.566C512.551 275.456 512.551 237.676 510.074 221.566C505.598 192.451 498.492 169.591 485.981 144.066C472.63 116.828 457.748 96.1057 436.263 74.8387C415.169 53.9587 395.846 40.2376 368.921 27.0196C343.7 14.6376 320.351 7.33565 292.421 3.09465C279.861 1.18765 245.644 0.332648 232.557 1.59965ZM279.921 44.5876C345.538 51.9196 404.191 89.5406 438.978 146.61C466.474 191.718 475.878 246.345 465.308 299.566C454.045 356.278 417.338 408.059 366.377 439.123C321.269 466.619 266.642 476.023 213.421 465.453C156.709 454.19 104.928 417.483 73.864 366.522C58.188 340.806 47.828 310.363 44.443 280.066C42.208 260.063 43.402 234.372 47.534 213.566C58.797 156.854 95.504 105.073 146.465 74.0087C171.561 58.7117 202.573 48.0086 231.421 44.6886C242.097 43.4596 269.32 43.4036 279.921 44.5876ZM204.921 130.934C202.171 132.226 199.158 134.142 198.226 135.192C195.343 138.44 192.465 145.871 192.465 150.066C192.465 158.704 194.091 160.619 243.203 209.816L289.872 256.566L243.203 303.316C194.091 352.513 192.465 354.428 192.465 363.066C192.465 367.261 195.343 374.692 198.226 377.94C200.871 380.919 209.506 384.548 213.921 384.534C222.67 384.508 224.099 383.273 280.751 326.762C310.358 297.229 336.008 271.041 337.751 268.566C340.629 264.48 340.921 263.375 340.921 256.566C340.921 249.757 340.629 248.652 337.751 244.566C336.008 242.091 310.358 215.903 280.751 186.37C224.099 129.859 222.67 128.624 213.921 128.598C211.721 128.591 207.671 129.642 204.921 130.934Z" />
</svg>
