<svg width="512" height="512" viewBox="0 0 512 512" fill="none" xmlns="http://www.w3.org/2000/svg">
<path fill-rule="evenodd" clip-rule="evenodd" d="M280.375 511.387C330.091 506.577 379.37 486.362 418.011 454.926C429.377 445.679 447.373 427.54 456.438 416.191C479.359 387.497 498.142 348.684 505.932 313.921C510.824 292.085 511.932 281.47 511.932 256.421C511.932 231.372 510.824 220.757 505.932 198.921C497.972 163.4 478.699 124.032 455.016 94.921C445.769 83.555 427.63 65.559 416.281 56.494C387.587 33.573 348.774 14.79 314.011 7.00001C292.175 2.10801 281.56 1.00001 256.511 1.00001C231.462 1.00001 220.847 2.108 199.011 7C172.874 12.857 138.699 27.461 116.241 42.37C77.2908 68.229 47.3758 102.252 26.9508 143.921C14.4398 169.446 7.33379 192.306 2.85778 221.421C0.380782 237.531 0.380778 275.311 2.85778 291.421C7.33377 320.536 14.4398 343.396 26.9508 368.921C40.3018 396.159 55.1838 416.881 76.6688 438.148C97.7628 459.028 117.086 472.749 144.011 485.967C169.232 498.349 192.581 505.651 220.511 509.892C233.071 511.799 267.288 512.654 280.375 511.387ZM233.011 468.399C167.394 461.067 108.741 423.446 73.9538 366.377C46.4578 321.269 37.0538 266.642 47.6238 213.421C58.8868 156.709 95.5938 104.928 146.555 73.864C191.663 46.368 246.29 36.964 299.511 47.534C356.223 58.797 408.004 95.504 439.068 146.465C454.744 172.181 465.104 202.624 468.489 232.921C470.724 252.924 469.53 278.615 465.398 299.421C454.135 356.133 417.428 407.914 366.467 438.978C341.371 454.275 310.359 464.978 281.511 468.298C270.835 469.527 243.612 469.583 233.011 468.399ZM308.011 382.053C310.761 380.761 313.774 378.845 314.706 377.795C317.589 374.547 320.467 367.116 320.467 362.921C320.467 354.283 318.841 352.368 269.729 303.171L223.06 256.421L269.729 209.671C318.841 160.474 320.467 158.559 320.467 149.921C320.467 145.726 317.589 138.295 314.706 135.047C312.061 132.068 303.426 128.439 299.011 128.453C290.262 128.479 288.833 129.714 232.181 186.225C202.574 215.758 176.924 241.946 175.181 244.421C172.303 248.507 172.011 249.612 172.011 256.421C172.011 263.23 172.303 264.335 175.181 268.421C176.924 270.896 202.574 297.084 232.181 326.617C288.833 383.128 290.262 384.363 299.011 384.389C301.211 384.396 305.261 383.345 308.011 382.053Z"/>
</svg>
