<svg width="512" height="512" viewBox="0 0 512 512" fill="none" xmlns="http://www.w3.org/2000/svg">
<path fill-rule="evenodd" clip-rule="evenodd" d="M192.761 2.01975C190.476 3.22675 188.24 5.52675 187.011 7.93575C185.156 11.5727 185 13.8057 185 36.8067V61.7347L181.25 62.4277C175.842 63.4277 162.14 70.0528 155.808 74.7298C147.585 80.8058 138.63 91.1698 134.184 99.7607C129.775 108.279 126 119.541 126 124.178C126 126.746 123.057 130.182 105.942 147.59C88.297 165.539 85.472 168.863 82.457 175.225C76.205 188.416 76.223 201.538 82.511 214.805C85.467 221.042 88.018 224.176 99.4 235.558C110.919 247.077 113.876 249.473 120.398 252.57C133.624 258.851 146.697 258.808 159.678 252.441C164.9 249.879 169.79 246.161 177.621 238.798C185.778 231.128 190.161 227.833 195.714 225.196C202.695 221.881 203.458 221.735 211.788 222.134C216.598 222.363 221.092 222.897 221.776 223.319C224.391 224.936 208.412 243.259 193.5 255.744C169.161 276.121 155.108 292.862 144.214 314.458C136.914 328.93 133.047 339.468 129.575 354.349C128.379 359.475 126.865 363.578 126 364.037C125.175 364.476 122.265 365.875 119.533 367.146C112.806 370.277 103.019 380.118 99.832 386.958C96.214 394.72 95.001 401.445 94.996 413.757L94.993 424.458L88.486 427.822C77.64 433.431 68.769 445.306 66.125 457.757C65.506 460.672 65 471.377 65 481.547C65 503.043 65.929 506.351 72.974 509.945C76.883 511.939 78.519 511.958 245 511.958C411.481 511.958 413.117 511.939 417.026 509.945C424.071 506.351 425 503.043 425 481.547C425 471.377 424.494 460.672 423.875 457.757C421.231 445.306 412.36 433.431 401.514 427.822L395.007 424.458L395.004 413.757C394.999 400.418 393.746 394.312 389.236 385.651C384.882 377.287 377.154 370.115 368.379 366.292C362.248 363.621 362.04 363.408 361.402 359.151C360.689 354.397 361.404 344.838 363.157 335.708L364.26 329.958H391.662C421.452 329.958 423.773 329.604 427.83 324.447C430.996 320.422 437.444 298.598 441.977 276.568C450.733 234.016 448.664 184.539 436.371 142.458C427.013 110.425 410.836 83.6797 385.547 58.4287C353.617 26.5477 315.049 6.79375 274.3 1.45275C266.08 0.374746 253.63 -0.030254 229.699 0.00174602C198.623 0.043746 196.261 0.172746 192.761 2.01975ZM237.026 31.9707C244.1 35.5797 245 38.8297 245 60.7697C245 78.7157 245.113 79.8278 247.25 82.9678C250.749 88.1088 253.858 89.8437 262.5 91.4777C297.393 98.0767 326.604 119.163 342.483 149.215C347.847 159.367 350.224 166.568 353.423 182.366C361.392 221.717 358.675 248.759 341.142 304.572C333.823 327.868 332.211 335.414 331.357 350.37L330.695 361.958H244.736H158.777L159.478 358.208C160.642 351.976 165.503 338.85 169.961 329.901C179.63 310.491 190.66 297.206 211.459 279.919C226.204 267.663 236.927 256.109 246.227 242.458L252.358 233.458L260.429 233.34C273.875 233.145 294.436 226.455 300.63 220.261C306.599 214.292 306.101 204.887 299.509 199.1C293.96 194.228 290.278 194.085 279.629 198.328C262.504 205.151 255.777 205.176 240.304 198.47C228.944 193.547 221.875 191.958 211.339 191.958C199.233 191.958 193.397 193.261 182.5 198.399C172.671 203.033 167.96 206.481 154.815 218.663C145.854 226.968 143.459 228.094 136.75 227.158C132.032 226.5 108.458 202.926 107.8 198.208C106.687 190.228 107.048 189.714 130.454 165.958C143.022 153.202 153.086 142.159 153.694 140.458C154.283 138.808 155.21 134.004 155.753 129.783C158.462 108.742 173.842 93.3707 194.825 90.7347C205.435 89.4017 210.424 87.0067 212.964 82.0277C214.845 78.3417 215 76.2047 215 53.9977V29.9577H224.04C231.126 29.9577 233.932 30.3927 237.026 31.9707ZM297.5 37.4917C345.4 53.7537 388.741 95.9717 404.827 142.037C413.938 168.128 418.887 206.312 417 235.954C415.852 253.995 414.23 264.288 409.321 284.708L405.655 299.958H389.72C374.949 299.958 373.836 299.83 374.474 298.208C374.852 297.246 376.712 290.833 378.608 283.958C389.646 243.928 390.354 209.718 381.008 168.053C370.539 121.386 335.394 83.0807 288.714 67.4597C282.957 65.5337 277.566 63.9577 276.735 63.9577C275.479 63.9577 275.138 61.5387 274.723 49.7077C274.448 41.8697 273.905 34.4807 273.515 33.2857L272.807 31.1137L281.154 32.9447C285.744 33.9517 293.1 35.9977 297.5 37.4917ZM192.761 122.02C182.741 127.31 182.652 141.986 192.604 147.692C200.21 152.052 209.588 149.281 213.053 141.649C215.511 136.235 215.483 132.826 212.941 127.843C209.332 120.769 200.15 118.12 192.761 122.02ZM357.026 393.971C362.996 397.017 365 401.779 365 412.918V421.958H245H125V412.918C125 401.957 127.013 397.055 132.761 394.02C136.415 392.091 138.949 392.045 244.79 392.002C351.392 391.959 353.141 391.989 357.026 393.971ZM387.026 453.971C392.996 457.017 395 461.779 395 472.918V481.958H245H95V472.918C95 461.957 97.013 457.055 102.761 454.02C106.43 452.083 109.08 452.046 244.79 452.002C381.459 451.959 383.126 451.982 387.026 453.971Z" />
</svg>
