<svg width="512" height="512" viewBox="0 0 512 512" fill="none" xmlns="http://www.w3.org/2000/svg">
<path fill-rule="evenodd" clip-rule="evenodd" d="M116.09 49.2734C98.6246 54.0044 84.4416 68.7914 80.8816 85.9774C80.1256 89.6254 79.8736 122.292 80.0576 192.417C80.3226 292.837 80.3396 293.615 82.3866 296.355C86.3046 301.603 89.5006 303.24 95.8246 303.24C102.149 303.24 105.345 301.603 109.263 296.355C111.306 293.62 111.33 292.661 111.825 191.74C112.32 90.8194 112.344 89.8604 114.387 87.1254C115.521 85.6064 117.691 83.4364 119.209 82.3024C121.935 80.2664 123.066 80.2344 207.825 79.7404C292.584 79.2464 293.715 79.2144 296.441 77.1784C301.688 73.2604 303.325 70.0644 303.325 63.7404C303.325 57.4164 301.688 54.2204 296.44 50.3024C293.706 48.2604 292.83 48.2384 207.502 48.0474C135.787 47.8874 120.446 48.0934 116.09 49.2734ZM179.937 113.321C163.034 117.866 149.776 131.313 145.317 148.433C143.038 157.181 143.075 418.441 145.356 427.198C149.849 444.446 163.177 457.731 180.518 462.248C189.106 464.485 386.544 464.485 395.132 462.248C412.473 457.731 425.801 444.446 430.294 427.198C431.632 422.062 431.825 404.461 431.825 287.74C431.825 171.019 431.632 153.418 430.294 148.282C425.801 131.034 412.473 117.749 395.132 113.232C386.698 111.035 188.131 111.117 179.937 113.321ZM392.44 146.302C393.959 147.436 396.129 149.606 397.263 151.125C399.322 153.882 399.325 154.109 399.325 287.74C399.325 421.371 399.322 421.598 397.263 424.355C396.129 425.874 393.959 428.044 392.44 429.178C389.693 431.229 389.136 431.24 287.825 431.24C186.514 431.24 185.957 431.229 183.21 429.178C181.691 428.044 179.521 425.874 178.387 424.355C176.332 421.604 176.324 421.122 176.038 290.417C175.88 218.27 176.01 157.791 176.328 156.019C177.045 152.012 181.247 146.904 185.275 145.139C187.764 144.049 206.831 143.843 289.002 144.022C388.955 144.238 389.699 144.255 392.44 146.302Z"/>
</svg>
