<svg width="512" height="512" viewBox="0 0 512 512" fill="none" xmlns="http://www.w3.org/2000/svg">
<path fill-rule="evenodd" clip-rule="evenodd" d="M65.4436 30.3731C38.4146 36.1831 15.2306 56.1951 5.37861 82.2211C0.556612 94.9621 0.0146121 101.055 0.000612062 142.721C-0.0113879 178.105 0.137612 181.545 1.83961 185.221C9.11261 200.931 30.7746 200.931 38.0476 185.221C39.7426 181.56 39.9016 178.109 39.9216 144.52C39.9356 121.221 40.3546 105.884 41.0686 102.52C44.2596 87.4921 55.5396 75.1461 70.2826 70.5441C75.8416 68.8081 84.7526 68.7211 255.928 68.7211C433.371 68.7211 435.819 68.7471 442.259 70.7371C456.284 75.0681 467.688 87.7591 470.82 102.52C471.533 105.882 471.952 121.241 471.966 144.52C471.986 178.109 472.145 181.56 473.84 185.221C481.113 200.931 502.775 200.931 510.048 185.221C511.747 181.551 511.901 178.084 511.914 143.221C511.923 121.597 511.48 102.42 510.886 98.7211C505.802 67.0271 483.096 41.2071 451.773 31.5011L444.444 29.2301L258.444 29.0491C96.1576 28.8911 71.5516 29.0601 65.4436 30.3731ZM331.444 112.617C323.675 116.214 319.944 122.122 319.944 130.826C319.944 143.697 332.761 153.5 344.619 149.7C354.377 146.572 359.401 139.246 358.755 129.091C358.427 123.943 357.805 122.105 355.341 119.008C349.309 111.426 339.616 108.833 331.444 112.617ZM401.089 111.791C393.877 114.68 387.95 123.236 387.976 130.721C388.004 138.72 395.049 147.595 403.09 149.76C410.896 151.862 419.814 148.401 424.677 141.384C427.025 137.997 427.439 136.389 427.441 130.65C427.444 124.769 427.057 123.343 424.431 119.561C419.333 112.219 408.786 108.708 401.089 111.791ZM95.4436 115.129C91.4936 116.904 87.4226 121.329 85.4966 125.939C80.8556 137.049 87.8746 150.039 99.9136 152.621C106.014 153.929 253.002 154.106 259.683 152.814C264.937 151.797 269.876 148.494 273.034 143.884C275.028 140.975 275.444 139.133 275.444 133.221C275.444 125.079 273.348 120.907 267.108 116.631L263.591 114.221L181.018 114.001C113.541 113.821 97.8946 114.028 95.4436 115.129ZM112.505 209.306C97.5636 212.649 85.1316 219.463 74.4086 230.186C58.7136 245.881 51.0146 266.01 52.2266 288.18C52.8676 299.917 55.3636 308.764 61.2636 320.221C66.5196 330.428 80.2436 344.658 90.0726 350.093C114.019 363.333 142.143 363.526 163.508 350.598C171.678 345.655 181.488 335.128 182.936 329.752C186.215 317.572 177.749 305.841 165.014 304.92C158.183 304.426 154.646 305.941 147.797 312.296C141.514 318.126 136.946 319.939 128.378 320.002C119.862 320.065 112.862 317.776 106.289 312.777C84.4446 296.169 88.4626 262.742 113.726 250.901C118.618 248.608 120.761 248.221 128.568 248.221C137.273 248.221 138.076 248.413 146.068 252.398C156.347 257.524 157.999 257.902 164.258 256.56C167.952 255.768 170.288 254.429 173.392 251.325C181.441 243.277 181.706 231.76 174.028 223.689C169.895 219.344 156.743 212.655 147.444 210.168C138.711 207.832 121.039 207.396 112.505 209.306ZM256.444 208.303C247.569 210.448 244.757 211.38 239.904 213.789C220.973 223.183 211.249 244.114 216.481 264.203C218.371 271.459 220.883 275.784 226.847 282.055C232.224 287.708 237.255 290.413 256.944 298.237C274.383 305.167 277.854 306.856 280.371 309.639C282.275 311.744 282.274 311.802 280.281 314.495C277.387 318.407 273.242 320.146 266.94 320.092C258.987 320.024 252.166 317.384 244.972 311.587C234.55 303.188 228.201 301.763 219.964 305.971C212.981 309.539 209.613 314.551 209.133 322.091C208.615 330.237 210.766 334.582 219.013 342.046C231.521 353.365 248.564 359.803 266.444 359.963C283.655 360.117 296.46 355.215 307.509 344.243C321.924 329.928 325.516 310.517 316.969 293.129C310.088 279.132 301.672 273.019 274.261 262.11C263.637 257.882 254.944 253.884 254.944 253.227C254.944 250.818 259.016 248.421 263.905 247.951C269.72 247.392 277.475 249.581 283.428 253.462C291.388 258.651 301.766 257.8 308.347 251.419C316.266 243.741 316.679 232.861 309.361 224.76C305.302 220.268 293.414 213.842 283.444 210.75C276.704 208.66 260.895 207.227 256.444 208.303ZM390.944 209.288C371.196 213.564 356.898 228.073 353.758 247.023C351.638 259.818 356.549 274.337 365.982 283.16C371.448 288.272 376.438 290.778 399.342 299.911C407.537 303.178 415.288 306.61 416.567 307.536C424.002 312.92 417.24 320.186 404.9 320.073C396.689 319.998 388.974 316.731 381.825 310.304C375.915 304.99 371.428 303.324 364.757 303.965C349.993 305.384 342.004 322.809 350.547 334.964C357.201 344.431 373.803 354.639 388.444 358.265C397.816 360.586 413.504 360.597 421.444 358.287C444.303 351.638 459.818 333.045 459.92 312.181C459.977 300.261 454.494 288.276 444.905 279.367C438.038 272.987 431.706 269.624 411.868 261.822C403.302 258.453 395.427 255.027 394.368 254.208C392.485 252.751 392.494 252.678 394.765 250.752C400.111 246.222 409.455 246.962 420.451 252.789C431.932 258.871 440.911 258.078 447.665 250.387C453.943 243.236 454.435 233.46 448.902 225.821C446.546 222.569 443.704 220.662 434.7 216.289C417.915 208.137 405.459 206.144 390.944 209.288ZM10.9436 366.969C8.46861 368.292 5.09361 371.289 3.44361 373.63C0.524612 377.77 0.434612 378.246 0.116612 391.3C-0.265388 406.921 0.929612 416.025 4.86061 427.45C14.1826 454.549 37.9106 475.333 66.1516 481.137C72.9526 482.535 89.1536 482.721 203.942 482.721C329.839 482.721 334.143 482.66 337.734 480.818C351.901 473.553 352.843 454.519 339.445 446.221L334.602 443.221L203.523 442.721C84.2726 442.266 72.0706 442.071 68.3076 440.556C54.4626 434.981 44.0296 422.864 41.0686 408.922C40.4496 406.007 39.9436 398.315 39.9436 391.829C39.9436 381.413 39.6716 379.521 37.6166 375.628C32.4616 365.864 20.3606 361.935 10.9436 366.969ZM482.944 366.969C480.469 368.292 477.094 371.291 475.444 373.633C472.509 377.8 472.43 378.232 471.8 393.557C471.009 412.798 469.597 417.634 461.984 427.183C454.93 436.031 441.864 442.713 431.589 442.727C424.67 442.736 419.733 444.668 415.299 449.103C406.254 458.148 407.412 471.834 417.846 479.205C421.415 481.726 423.211 482.246 429.433 482.56C459.154 484.061 491.733 463.059 504.514 434.159C509.77 422.275 511.126 415.24 511.638 397.221C512.108 380.696 512.054 380.095 509.706 375.721C504.405 365.846 492.393 361.918 482.944 366.969Z"/>
</svg>
