<svg width="512" height="512" viewBox="0 0 512 512" fill="none" xmlns="http://www.w3.org/2000/svg">
<path fill-rule="evenodd" clip-rule="evenodd" d="M232.557 1.59965C182.841 6.40965 133.562 26.6246 94.921 58.0606C83.555 67.3076 65.559 85.4467 56.494 96.7957C33.573 125.49 14.79 164.303 7 199.066C2.108 220.902 1 231.517 1 256.566C1 281.615 2.108 292.23 7 314.066C14.96 349.587 34.233 388.955 57.916 418.066C67.163 429.432 85.302 447.428 96.651 456.493C125.345 479.414 164.158 498.197 198.921 505.987C220.757 510.879 231.372 511.987 256.421 511.987C281.47 511.987 292.085 510.879 313.921 505.987C340.058 500.13 374.233 485.526 396.691 470.617C435.641 444.758 465.556 410.735 485.981 369.066C498.492 343.541 505.598 320.681 510.074 291.566C512.551 275.456 512.551 237.676 510.074 221.566C505.598 192.451 498.492 169.591 485.981 144.066C472.63 116.828 457.748 96.1057 436.263 74.8387C415.169 53.9587 395.846 40.2376 368.921 27.0196C343.7 14.6376 320.351 7.33565 292.421 3.09465C279.861 1.18765 245.644 0.332648 232.557 1.59965ZM286.673 99.4817C356.244 113.565 407.266 171.567 415.362 245.777C416.852 259.437 416.649 277.828 414.917 286.002C407.705 320.045 372.798 342.589 339.147 334.935C326.806 332.129 316.888 326.763 308.637 318.43L304.506 314.257L298.01 320.334C269.842 346.684 222.756 339.808 203.145 306.482C194.981 292.607 191.106 272.619 193.13 254.816C196.099 228.703 208.353 209.118 227.685 199.589C246.473 190.329 265.36 190.238 284.112 199.32L289.303 201.833L292.625 198.311C298.68 191.891 308.19 190.976 314.414 196.214C319.968 200.887 319.884 200.255 320.421 241.566L320.921 280.066L323.541 285.652C332.967 305.754 359.348 310.573 374.888 295.033C381.448 288.473 383.804 281.852 384.254 268.717C386.351 207.517 349.705 152.575 294.883 134.728C282.078 130.559 272.878 129.208 256.921 129.15C234.731 129.071 217.497 133.096 198.327 142.837C169.797 157.333 145.802 184.642 135.742 214.066C122.92 251.568 127.775 293.852 148.548 325.59C171.088 360.029 203.903 379.889 244.752 383.816C265.767 385.836 287.29 382.347 307.885 373.581C318.494 369.066 321.109 368.787 327.15 371.53C334.621 374.921 337.948 383.279 334.951 391.126C332.941 396.389 329.35 399.349 320.421 403.101C293.823 414.279 267.198 418.417 239.921 415.612C194.338 410.925 153.734 387.847 127.237 351.566C88.006 297.848 86.219 223.507 122.839 168.64C149.489 128.712 190.186 103.605 238.067 97.5546C248.996 96.1736 275.525 97.2257 286.673 99.4817ZM246.664 226.277C243.503 227.208 239.597 229.419 236.867 231.823C220.357 246.355 220.354 282.774 236.861 297.304C241.593 301.469 249.933 304.566 256.421 304.566C262.909 304.566 271.249 301.469 275.981 297.304C289.077 285.777 292.36 259.193 282.975 240.673C276.441 227.778 261.572 221.883 246.664 226.277Z"/>
</svg>
