<svg width="512" height="512" viewBox="0 0 512 512" fill="none" xmlns="http://www.w3.org/2000/svg">
<path fill-rule="evenodd" clip-rule="evenodd" d="M71.931 60.9234C38.316 64.1864 11.35 87.2474 1.839 120.867C0.097 127.024 0 134.142 0 255.867C0 377.592 0.097 384.71 1.839 390.867C11.542 425.164 38.191 447.521 73.342 450.855C87.829 452.228 423.171 452.228 437.658 450.855C454.602 449.248 467.658 444.221 480.5 434.358C498.575 420.476 509.794 399.093 511.159 375.924C511.606 368.327 511.401 366.869 509.331 362.925C505.991 356.56 500.723 352.691 494.596 352.102C487.285 351.4 483.321 352.472 478.741 356.392C473.993 360.457 472.136 365.024 470.724 376.119C468.935 390.166 461.036 401.231 448.5 407.247L442 410.367H255.5H69L62.5 407.247C51.078 401.765 42.746 391.013 40.506 378.867C39.848 375.301 39.581 333.204 39.746 259.151L40 144.935L128.051 199.678C176.48 229.787 219.38 255.887 223.387 257.678C234.305 262.561 242.348 264.192 255.5 264.192C268.652 264.192 276.695 262.561 287.613 257.678C291.62 255.887 334.52 229.787 382.949 199.678L471 144.935L471.5 211.151C471.983 275.09 472.069 277.484 474 280.761C475.1 282.628 477.729 285.553 479.843 287.261C483.408 290.143 484.25 290.367 491.5 290.367C498.711 290.367 499.611 290.131 503.157 287.309C505.271 285.627 508.027 282.252 509.281 279.809L511.563 275.367L511.23 200.867C510.862 118.25 511.214 122.816 504.009 107.192C491.603 80.2944 467.896 63.7474 437.658 60.8794C425.004 59.6794 84.324 59.7204 71.931 60.9234ZM443.068 102.351C445.781 103.167 449.505 104.761 451.344 105.893L454.687 107.951L365.344 163.573C316.205 194.165 273.3 220.338 270 221.737C261.482 225.346 249.518 225.346 241 221.737C237.7 220.338 194.81 194.174 145.689 163.593L56.379 107.992L59.062 106.235C60.537 105.268 64.052 103.679 66.872 102.705C71.706 101.034 82.482 100.93 255.068 100.9C414.11 100.871 438.784 101.062 443.068 102.351Z"/>
</svg>
