<svg width="512" height="512" viewBox="0 0 512 512" fill="none" xmlns="http://www.w3.org/2000/svg">
<path fill-rule="evenodd" clip-rule="evenodd" d="M225.145 12.3778C120.804 25.0018 33.8073 100.469 8.44627 200.355C2.51727 223.707 1.02827 235.909 1.00027 261.355C0.986268 274.228 1.52227 287.296 2.29427 292.855C13.1493 371.11 55.8913 436.004 123.525 476.917C144.141 489.388 171.43 500.855 180.493 500.855C185.01 500.855 186.052 500.44 189.037 497.455C191.201 495.291 192.475 493.019 192.542 491.205C192.691 487.154 192.286 446.379 192.095 446.24C192.008 446.176 187.887 446.763 182.937 447.543C172.17 449.24 155.595 448.712 146.937 446.397C135.464 443.328 126.758 438.405 118.995 430.597C112.67 424.235 110.929 421.593 104.676 408.855C96.3563 391.907 90.7943 384.461 81.6453 378.024C67.4173 368.013 65.1793 363.635 72.9373 360.996C76.0303 359.944 78.3583 359.867 83.2023 360.658C96.8633 362.888 109.14 371.574 118.731 385.794C130.702 403.543 140.66 410.476 157.641 412.884C165.437 413.99 176.163 412.801 186.105 409.73C193.201 407.539 193.194 407.549 195.952 396.617C197.701 389.688 202.668 380.354 207.061 375.741L209.551 373.126L203.244 372.423C192.963 371.278 173.94 366.976 164.624 363.69C147.8 357.756 137.082 351.308 125.156 339.944C102.903 318.741 92.5003 287.942 93.7123 246.855C94.1273 232.793 94.5943 229.025 96.8713 221.355C100.478 209.211 105.635 199.011 113.19 189.083C118.064 182.678 119.28 180.421 118.58 179.083C116.463 175.035 114.437 162.278 114.437 152.996C114.437 142.252 116.218 131.028 119.477 121.236C121.889 113.985 123.214 113.408 133.946 114.928C147.582 116.859 166.926 124.881 184.489 135.887C191.597 140.342 192.557 140.679 195.603 139.788C204.02 137.324 226.514 133.839 240.601 132.816C263.426 131.159 294.456 133.884 314.358 139.291L319.779 140.764L328.858 135.134C346.321 124.305 364.603 116.815 378.303 114.874C389.091 113.347 390.037 113.858 392.828 122.729C394.148 126.923 395.787 133.843 396.47 138.105C398.121 148.414 397.24 167.423 394.742 175.355L392.852 181.355L397.398 186.999C412.414 205.643 418.602 224.509 418.545 251.473C418.401 318.53 388.185 356.83 325.564 369.326C319.169 370.602 311.329 371.953 308.141 372.328L302.345 373.01L305.862 376.903C310.112 381.608 314.658 390.372 317.02 398.418C318.517 403.516 318.847 410.647 319.35 448.855C319.791 482.268 320.256 493.913 321.217 495.595C322.947 498.623 327.546 500.855 332.057 500.855C341.383 500.855 377.381 484.6 397.937 471.107C414.448 460.269 427.855 449.218 441.477 435.216C479.912 395.711 502.902 348.351 510.583 292.855C512.572 278.485 512.273 242.163 510.043 227.355C492.879 113.364 401.924 25.8248 286.637 12.3388C271.239 10.5378 240.189 10.5568 225.145 12.3778Z" />
</svg>
