<svg width="512" height="512" viewBox="0 0 512 512" fill="none" xmlns="http://www.w3.org/2000/svg">
<path fill-rule="evenodd" clip-rule="evenodd" d="M231.349 4.63258C184.129 9.47658 139.718 26.8956 101.159 55.6986C88.5123 65.1456 61.3053 92.3206 52.0063 104.794C15.9033 153.221 -2.0737 209.872 0.190297 268.082C1.6223 304.914 9.4653 337.127 24.7813 369.082C38.1953 397.07 52.7193 417.557 74.7963 439.635C104.119 468.958 135.999 488.777 175.511 502.249C192.684 508.104 200.33 508.603 208.349 504.394C214.254 501.294 217.759 497.74 220.989 491.582C223.261 487.25 223.349 486.263 223.349 465.082C223.349 443.122 223.344 443.073 220.654 437.975C214.334 425.994 206.626 421.166 191.282 419.575C170.886 417.46 163.789 411.28 148.255 382.114C140.207 367.001 132.838 358.446 126.349 356.681C120.784 355.167 109.431 355.312 105.52 356.946C98.6553 359.815 94.8473 367.427 96.3283 375.323C97.2603 380.289 103.476 386.264 108.592 387.111C117.604 388.604 119.627 390.89 129.286 410.498C142.527 437.376 154.711 447.667 177.302 451.052C188.667 452.756 190.705 454.091 191.55 460.387C192.033 463.992 191.732 464.853 189.051 467.534C185.222 471.363 182.891 471.373 173.387 467.597C99.6623 438.311 46.4583 371.526 34.3583 293.082C32.0833 278.333 31.3753 254.216 32.7873 239.582C37.8153 187.472 58.9073 141.436 94.7723 104.29C180.994 14.9876 321.979 12.4446 411.225 98.5816C514.926 198.672 498.594 368.491 377.695 447.209C368.697 453.068 351.406 462.283 342.477 465.979C334.653 469.218 327.587 467.201 322.441 460.26C320.434 457.554 320.337 456.111 320.059 424.908C319.684 382.811 318.947 384.79 337.972 376.841C375.355 361.221 404.024 330.955 413.05 297.582C415.213 289.585 415.347 287.307 415.316 259.082C415.284 229.26 415.267 229.029 412.537 220.082C411.027 215.132 407.571 206.582 404.859 201.082L399.927 191.082L399.598 162.082C399.291 134.899 399.131 132.732 397.052 127.503C390.809 111.802 376.095 104.879 357.679 108.976C348.676 110.979 341.843 114.145 322.874 125.101L308.333 133.499L301.841 132.56C293.396 131.34 218.298 131.341 209.853 132.561L203.356 133.5L189.531 125.468C170.974 114.686 162.978 110.97 154.078 108.989C135.599 104.878 120.898 111.781 114.646 127.503C112.567 132.732 112.407 134.899 112.1 162.082L111.771 191.082L106.859 201.082C96.8673 221.423 95.4783 229.629 96.0853 264.736C96.4993 288.666 96.6733 290.573 99.1923 298.866C105.257 318.834 114.359 333.17 131.06 349.061C146.243 363.508 151.675 365.833 160.283 361.567C166.496 358.489 168.349 355.277 168.349 347.582C168.349 339.876 167.512 338.54 157.689 330.582C145.14 320.415 135.915 307.884 131.067 294.417C128.554 287.44 128.407 285.946 128.043 263.783C127.52 231.891 129.143 223.933 139.29 208.671L143.849 201.813V181.409C143.849 162.221 143.983 160.743 146.099 156.602C148.95 151.024 152.422 148.497 158.123 147.855C164.492 147.137 170.221 149.324 186.229 158.584L200.02 166.562L208.566 165.072C220.833 162.933 290.862 162.932 303.127 165.071L311.668 166.561L326.201 158.217C342.057 149.114 347.673 147.027 354.017 147.878C359.424 148.603 362.818 151.16 365.599 156.602C367.715 160.743 367.849 162.221 367.849 181.409V201.813L372.408 208.671C382.555 223.933 384.178 231.891 383.655 263.783C383.291 285.946 383.144 287.44 380.631 294.417C372.007 318.369 349.689 338.679 319.589 349.965C303.482 356.005 292.286 368.587 288.964 384.381C288.271 387.675 287.849 402.451 287.849 423.421C287.849 460.604 288.248 463.921 294.015 474.743C304.451 494.322 328.673 504.327 349.131 497.51C360.243 493.807 383.225 481.861 396.943 472.659C435.52 446.779 464.343 414.241 484.707 373.582C493.81 355.408 499.335 340.397 504.25 320.485C509.864 297.74 511.27 285.431 511.264 259.082C511.258 234.571 510.116 223.71 505.27 202.082C497.355 166.763 477.28 125.744 454.368 98.0816C412.442 47.4616 357.032 16.0986 291.849 6.09358C279.308 4.16858 244.153 3.31958 231.349 4.63258ZM201.299 356.989C191.082 361.439 188.782 375.023 196.933 382.776C203.297 388.831 211.895 389.115 218.309 383.483C231.769 371.665 217.747 349.824 201.299 356.989Z"/>
</svg>
