<svg width="512" height="512" viewBox="0 0 512 512" fill="none" xmlns="http://www.w3.org/2000/svg">
<path fill-rule="evenodd" clip-rule="evenodd" d="M332.504 65.4442C316.931 68.2592 303.995 73.9822 291.149 83.7392C286.812 87.0332 267.516 105.509 248.269 124.795L213.273 159.862L228.506 175.095L243.738 190.327L281.501 152.733C314.218 120.164 320.066 114.767 325.264 112.348C341.758 104.673 358.665 104.944 374.183 113.132C382.105 117.313 394.312 129.52 398.493 137.442C406.999 153.564 406.809 173.28 397.996 188.861C396.519 191.472 379.883 209.002 358.368 230.618L321.286 267.875L336.524 283.113L351.763 298.352L386.83 263.356C406.116 244.109 424.641 224.761 427.995 220.361C451.838 189.081 454.048 146.334 433.557 112.743C426.657 101.432 410.193 84.9682 398.882 78.0682C379.049 65.9692 354.948 61.3862 332.504 65.4442ZM239.502 241.623L172.755 308.376L188.017 323.614L203.279 338.852L270.026 272.099L336.773 205.346L321.511 190.108L306.249 174.87L239.502 241.623ZM122.638 250.611C102.528 270.823 83.9701 290.356 81.3981 294.017C59.5011 325.189 58.1621 366.704 78.0131 398.979C84.5831 409.66 98.8791 424.48 109.305 431.417C142.638 453.596 184.826 453.079 217.764 430.088C224.398 425.458 297.764 353.275 297.764 351.379C297.764 350.049 269.576 321.861 268.246 321.861C267.7 321.861 251.281 337.882 231.759 357.464C212.237 377.046 193.937 394.588 191.092 396.445C175.222 406.809 154.49 407.636 137.345 398.59C129.423 394.409 117.216 382.202 113.035 374.28C104.847 358.76 104.601 341.14 112.347 324.992C114.574 320.351 121.613 312.766 152.406 281.832C172.953 261.19 189.764 243.86 189.764 243.319C189.764 242.013 161.53 213.861 160.221 213.861C159.661 213.861 142.749 230.398 122.638 250.611Z"/>
</svg>
