<svg width="512" height="512" viewBox="0 0 512 512" fill="none" xmlns="http://www.w3.org/2000/svg">
<path fill-rule="evenodd" clip-rule="evenodd" d="M67.16 0.954646C36.161 6.15665 12.254 27.1296 2.808 57.4066L0 66.4066V255.907V445.407L2.808 454.407C11.169 481.207 30.204 500.242 57 508.598L66 511.405L179 511.67C285.306 511.92 292.203 511.831 295.429 510.171C300.758 507.43 303 503.649 303 497.407C303 491.16 300.75 487.372 295.429 484.659C292.226 483.026 284.78 482.91 182.644 482.909C62.636 482.907 67.877 483.155 55.462 476.888C48.16 473.202 38.205 463.247 34.519 455.945C28.109 443.247 28.5 456.241 28.5 255.907C28.5 55.5726 28.109 68.5666 34.519 55.8686C38.205 48.5666 48.16 38.6116 55.462 34.9256C65.659 29.7786 71.232 28.9066 93.934 28.9066C112.271 28.9066 114.995 28.6936 118.29 27.0016C128.516 21.7516 128.319 6.90165 117.956 1.88565C114.254 0.093646 111.893 -0.0823539 92.934 0.0246461C81.42 0.0886461 69.822 0.507646 67.16 0.954646ZM207.571 1.64265C202.243 4.38365 200 8.16465 200 14.4066C200 20.6536 202.25 24.4416 207.571 27.1546C210.776 28.7896 218.412 28.9036 324.356 28.9046C448.772 28.9066 443.099 28.6466 455.538 34.9256C462.84 38.6116 472.795 48.5666 476.481 55.8686C482.891 68.5666 482.5 55.5726 482.5 255.907C482.5 456.241 482.891 443.247 476.481 455.945C472.795 463.247 462.84 473.202 455.538 476.888C445.104 482.155 439.976 482.907 414.507 482.907C394.902 482.907 390.756 483.166 387.783 484.577C383.886 486.426 380.826 490.713 379.898 495.624C378.961 500.579 382.714 507.465 387.75 510.035C391.599 511.998 393.046 512.075 418.395 511.669C443.861 511.262 445.385 511.127 454 508.517C480.566 500.471 499.818 481.248 508.192 454.407L511 445.407V255.907V66.4066L508.192 57.4066C499.831 30.6076 480.798 11.5746 454 3.21465L445 0.406646L328 0.143646C217.887 -0.105354 210.798 -0.0173539 207.571 1.64265ZM127.988 100.838C112.245 106.446 102.063 116.663 96.986 131.95C94.56 139.254 94.777 152.668 97.446 160.326C104.408 180.306 121.362 192.272 142.5 192.126C163.008 191.984 179.837 179.741 186.64 160.013C188.983 153.218 189.219 139.615 187.111 132.808C182.154 116.801 170.491 105.148 154.599 100.325C148.127 98.3596 134.191 98.6286 127.988 100.838ZM150.631 129.505C155.555 131.995 160.489 139.953 160.489 145.407C160.489 148.553 157.996 154.411 155.399 157.369C145.17 169.019 126.359 163.386 123.888 147.935C122.638 140.115 129.078 129.918 136.268 128.334C137.771 128.003 139.45 127.583 140 127.401C141.641 126.857 147.81 128.078 150.631 129.505ZM322.367 202.919C313.26 203.96 304.104 206.239 296.326 209.4C290.636 211.712 290.633 211.712 288.819 209.707C284.634 205.083 283.276 204.907 251.698 204.907C222.275 204.907 221.741 204.943 218.398 207.177C211.069 212.073 211.503 205.58 211.502 310.189C211.5 411.797 211.281 407.673 216.95 412.907L219.659 415.407L252.829 415.72C282.582 416.001 286.333 415.857 289.232 414.322C296.257 410.604 295.945 413.156 296.5 354.907L297 302.407L299.3 298.707C306.042 287.866 321.684 287.678 328.155 298.361C329.867 301.188 330.036 305.146 330.5 353.407C331.055 411.132 330.886 409.733 337.799 413.947C340.8 415.778 343.026 415.9 373.5 415.9C403.954 415.9 406.201 415.777 409.196 413.951C416.254 409.647 415.965 411.961 416.313 356.952C416.643 304.647 415.808 285.449 412.568 270.843C406.108 241.724 389.392 219.441 366.076 208.869C353.793 203.299 337.924 201.139 322.367 202.919ZM108.5 205.613C106.168 206.466 102.454 210.13 100.905 213.107C99.727 215.371 99.5 231.119 99.5 310.471V405.135L101.637 408.937C105.624 416.031 105.872 416.072 143.171 415.72L176.341 415.407L179.016 412.907C184.796 407.504 184.5 413.038 184.496 310.207C184.493 217.375 184.451 215.339 182.505 212.148C181.412 210.355 179.052 207.995 177.259 206.902C174.179 205.024 172.244 204.919 142 204.99C124.4 205.031 109.325 205.312 108.5 205.613ZM344.066 232C352.618 233.576 360.173 237.484 366.733 243.725C373.963 250.603 377.791 256.559 381.392 266.533C386.78 281.456 387 284.252 387 337.907V387.407H373.5H360L359.457 342.407C359.058 309.334 358.568 296.347 357.607 293.407C354.363 283.478 344.286 271.385 335.552 266.937C316.993 257.485 294.347 261.446 280.533 276.561C274.967 282.651 273.35 285.353 270.204 293.82C268.243 299.096 268.106 301.866 267.733 343.657L267.338 387.907H253.919H240.5V310.407V232.907H251.868H263.237L263.71 240.28C264.236 248.481 266.469 252.806 271.529 255.422C278.36 258.955 285.024 256.674 291.157 248.703C298.232 239.508 307.736 234.289 321.5 232.04C329.365 230.754 337.229 230.741 344.066 232ZM155.5 310.407V387.907H142H128.5V310.407V232.907H142H155.5V310.407Z" />
</svg>
