<svg width="512" height="512" viewBox="0 0 512 512" fill="none" xmlns="http://www.w3.org/2000/svg">
<path fill-rule="evenodd" clip-rule="evenodd" d="M47.8009 1.42996C31.1409 5.02096 13.9699 18.489 6.44288 33.87C-5.15912 57.578 -0.842123 85.42 17.3779 104.401C41.3749 129.4 81.2959 129.392 105.224 104.384C123.484 85.3 127.754 57.677 116.103 34.005C110.757 23.143 99.1229 11.487 88.6159 6.46496C75.3759 0.137963 61.6499 -1.55504 47.8009 1.42996ZM361.398 163.417C330.498 169.23 304.184 186.056 287.969 210.37L283.301 217.37L283.033 193.62L282.765 169.87H231.783H180.801V340.87V511.87H233.801H286.801L286.804 422.12C286.807 366.276 287.211 328.062 287.876 320.966C291.297 284.445 304.894 264.134 330.472 257.337C339.627 254.904 355.008 254.391 363.629 256.231C380.052 259.736 389.336 266.85 396.281 281.249C405.346 300.042 405.801 306.631 405.801 418.976V511.87H458.801H511.801L511.797 409.12C511.795 350.248 511.364 300.392 510.787 292.37C507.407 245.298 497.094 215.223 476.949 193.688C463.349 179.149 445.169 169.752 420.874 164.701C407.835 161.99 372.98 161.238 361.398 163.417ZM8.47588 170.528C8.10488 170.899 7.80088 247.853 7.80088 341.537V511.87H61.3039H114.807L114.554 341.12L114.301 170.37L61.7259 170.111C32.8099 169.969 8.84788 170.156 8.47588 170.528Z"/>
</svg>
