<svg width="512" height="512" viewBox="0 0 512 512" fill="none" xmlns="http://www.w3.org/2000/svg">
<path fill-rule="evenodd" clip-rule="evenodd" d="M264.504 1.02604C256.926 3.54404 253.718 5.90904 240.757 18.53C205.102 53.253 177.342 92.995 149.142 149.691C136.734 174.637 126.029 199.023 115.998 225.191C103.517 257.754 85.004 314.604 85.004 320.369C85.004 324.761 87.413 330.448 90.807 334.067C99.522 343.361 117.117 342.689 123.473 332.82C124.758 330.824 128.809 319.741 132.474 308.191C138.67 288.668 146.639 265.137 151.141 253.069L153.052 247.946L162.278 246.771C193.691 242.769 222.521 232.725 244.699 218.057C254.457 211.604 259.398 206.154 260.9 200.19C261.508 197.775 262.004 187.471 262.004 177.248C262.004 167.042 262.172 158.691 262.378 158.691C262.584 158.691 264.721 159.772 267.128 161.092C273.149 164.396 277.249 165.072 282.96 163.702C289.424 162.151 295.137 157.134 297.989 150.504C304.437 135.515 309.011 107.552 308.993 83.221C308.977 59.911 304.954 26.927 301.047 18.069C298.487 12.263 292.482 5.96704 286.72 3.04704C280.72 0.00704241 270.397 -0.932958 264.504 1.02604ZM135.004 64.37C103.884 67.56 72.725 77.235 38.074 94.467C17.239 104.828 11.183 109.365 5.736 118.691C-0.293998 129.015 0.00400196 119.536 0.00400196 301.191C0.00400196 484.503 -0.376998 473.397 6.296 484.553C13.317 496.289 25.777 503.775 39.489 504.495C46.146 504.844 50.368 504.291 63.534 501.346C98.052 493.622 122.002 490.718 151.293 490.702C162.178 490.696 175.453 491.166 180.793 491.746C202.519 494.105 225.402 500.072 243.885 508.199C254.083 512.682 257.925 512.682 268.123 508.199C286.606 500.072 309.489 494.105 331.215 491.746C336.555 491.166 349.83 490.696 360.715 490.702C390.006 490.718 413.956 493.622 448.474 501.346C461.64 504.291 465.862 504.844 472.519 504.495C490.644 503.544 505.942 490.896 510.481 473.111C511.858 467.714 512.003 448.101 511.768 298.611L511.504 130.191L509.326 124.877C506.066 116.924 499.616 109.043 492.719 104.585C484.173 99.062 463.369 88.616 450.425 83.349C419.048 70.58 387.205 63.69 359.58 63.691L351.504 63.692V85.078V106.465L367.004 106.952C394.533 107.817 421.982 115.792 455.004 132.52L468.504 139.359L469.118 300.275C469.456 388.779 469.564 461.384 469.357 461.619C469.15 461.854 462.52 460.625 454.623 458.887C392.114 445.128 334.744 444.202 288.545 456.206C283.284 457.573 278.535 458.691 277.991 458.691C277.348 458.691 277.004 421.973 277.004 353.208V247.725L266.586 254.591C260.856 258.367 251.406 263.794 245.586 266.651L235.004 271.844V365.268C235.004 422.869 234.644 458.691 234.065 458.691C233.548 458.691 227.733 457.374 221.142 455.765C183.518 446.577 144.915 445.334 97.504 451.782C83.783 453.648 53.907 459.364 46.399 461.56L43.294 462.468L42.767 301.83C42.432 199.447 42.59 140.755 43.205 139.99C44.625 138.219 70.892 125.457 82.882 120.712C93.946 116.333 110.803 111.201 117.682 110.117C121.819 109.465 121.925 109.341 128.41 97.639C132.012 91.139 138.091 80.841 141.919 74.756L148.879 63.691L143.691 63.851C140.838 63.939 136.929 64.173 135.004 64.37Z"/>
</svg>
