<svg width="512" height="512" viewBox="0 0 512 512" fill="none" xmlns="http://www.w3.org/2000/svg" xmlns:xlink="http://www.w3.org/1999/xlink">
<path fill-rule="evenodd" clip-rule="evenodd" d="M437.916 30.2528C429.686 32.3398 422.262 35.9248 415.5 41.0758C405.185 48.9328 256.196 199.14 248.744 209.194C229.302 235.425 218.341 266.895 217.845 297.907C217.695 307.279 217.934 308.902 220.015 312.603C221.301 314.891 224.152 318.007 226.352 319.527C230.277 322.24 230.61 322.289 244.425 322.19C276.989 321.958 309.6 309.641 337 287.226C340.575 284.302 379.088 246.22 422.585 202.6C499.222 125.747 501.785 123.055 505.362 115.662C512.021 101.901 513.566 88.2348 510.028 74.3998C504.847 54.1428 491.048 38.8338 471.881 32.0808C462.777 28.8728 446.756 28.0108 437.916 30.2528ZM460.79 70.6938C470.579 75.7138 474.571 86.7098 470.082 96.2908C467.494 101.814 312.025 256.857 303.134 262.781C291.536 270.509 274.729 277.88 263.25 280.273C259.223 281.112 259.2 280.776 262.503 269.376C265.427 259.288 272.337 245.009 278.757 235.791C284.268 227.878 437.901 73.5128 443 70.7648C447.675 68.2458 455.952 68.2128 460.79 70.6938ZM87.2501 83.8568C49.7271 88.7358 17.6811 115.114 5.32607 151.291C-0.0799336 167.12 6.61062e-05 164.866 6.61062e-05 302.262C6.61062e-05 424.764 0.0720661 429.751 1.93507 437.035C7.64307 459.355 24.2041 475.886 46.3391 481.359C55.8061 483.7 70.0051 482.955 79.5121 479.618C89.4891 476.116 95.4661 471.944 112.657 456.482L127.813 442.85L238.657 442.568L349.5 442.287L358.5 439.499C394.317 428.405 419.372 402.945 428.701 368.163C431.237 358.708 431.367 356.981 431.763 327.309C432.224 292.892 431.981 290.989 426.33 284.735C418.655 276.24 405.725 276.111 397.803 284.452C392.322 290.222 392 292.313 392 322.099C392 345.889 391.747 350.461 390.065 357.035C384.722 377.928 370.463 393.216 349.5 400.528C344.891 402.135 335.499 402.312 229.5 402.781C124.691 403.246 114.231 403.439 111.464 404.956C109.794 405.872 100.344 413.894 90.4641 422.782C80.5841 431.671 70.7001 439.8 68.5001 440.845C61.0631 444.381 50.6731 442.506 45.2981 436.659C39.7291 430.602 39.9991 437.473 40.0171 302.073C40.0361 165.432 39.8401 170.197 45.9681 157.359C53.3721 141.843 65.9311 131.236 84.1041 125.147C89.1061 123.471 96.2631 123.301 182.074 122.815L274.648 122.291L278.804 119.54C285.712 114.967 289.153 105.785 286.98 97.7168C285.467 92.0978 278.951 85.4258 273.497 83.9118C268.765 82.5978 97.3201 82.5478 87.2501 83.8568ZM93.6371 204.231C82.6961 208.203 77.1401 221 81.8901 231.291C84.1241 236.132 87.2901 239.179 92.2321 241.243C97.7281 243.54 162.272 243.54 167.768 241.243C183.396 234.714 183.957 213.38 168.721 205.052C165.851 203.483 161.799 203.266 131.5 203.06C104.383 202.875 96.7181 203.112 93.6371 204.231ZM93.6371 284.231C82.6961 288.203 77.1401 301 81.8901 311.291C84.1241 316.132 87.2901 319.179 92.2321 321.243C97.7281 323.54 162.272 323.54 167.768 321.243C183.396 314.714 183.957 293.38 168.721 285.052C165.851 283.483 161.799 283.266 131.5 283.06C104.383 282.875 96.7181 283.112 93.6371 284.231Z" />

</svg>