<svg class="svg-skill" viewBox="0 0 64 64" fill="none" xmlns="http://www.w3.org/2000/svg">
<path d="M7.46655 0V64" stroke="#DADADA"/>
<path d="M56.5334 0V64" stroke="#DADADA"/>
<path d="M64 7.46667L-3.33786e-06 7.46667" stroke="#DADADA"/>
<path d="M64 56.5333L-1.60933e-06 56.5333" stroke="#DADADA"/>
<path class="svg-path-stroke" d="M38.8476 28.4441L30.8182 20.6388C39.2227 22.3015 43.6155 24.7891 45.6205 27.0951C46.6781 28.3114 47.0601 29.4622 47.05 30.4176C47.0398 31.3753 46.6364 32.1786 46.0455 32.7158L45.6619 33.0644L46.0242 33.4352L49.3232 36.8114L46.6361 39.4984L43.3452 36.1305L42.9917 35.7687L42.634 36.1264C41.4491 37.3114 39.067 37.8468 36.5429 35.8239C34.1271 33.8878 31.5799 29.5894 30.0394 21.2763L38.1426 29.1534C37.6556 29.9607 37.7605 31.0251 38.4571 31.7218C39.2772 32.5419 40.6069 32.5419 41.427 31.7218C42.2471 30.9017 42.2471 29.572 41.427 28.7519C40.7272 28.0521 39.6563 27.9495 38.8476 28.4441ZM40.7199 29.459C41.1495 29.8886 41.1495 30.5851 40.7199 31.0147C40.2903 31.4443 39.5938 31.4443 39.1642 31.0147C38.7347 30.5851 38.7347 29.8886 39.1642 29.459C39.5938 29.0295 40.2903 29.0295 40.7199 29.459Z" stroke="black"/>
<rect class="svg-path-stroke" x="23.9666" y="14.3667" width="5.4" height="5.4" stroke="black"/>
<rect class="svg-path-stroke" x="11.1667" y="44.2333" width="5.4" height="5.4" stroke="black"/>
<line class="svg-path-stroke" x1="26.0512" y1="19.4157" x2="14.3178" y2="43.9491" stroke="black"/>
</svg>
