<svg class="svg-skill" viewBox="0 0 64 64" fill="none" xmlns="http://www.w3.org/2000/svg">
<path d="M7.46655 0V64" stroke="#DADADA"/>
<path d="M56.5334 0V64" stroke="#DADADA"/>
<path d="M64 7.46667L-3.33786e-06 7.46667" stroke="#DADADA"/>
<path d="M64 56.5333L-1.60933e-06 56.5333" stroke="#DADADA"/>
<path class="svg-path-stroke" d="M32.0001 14.9333C32.0001 17.2897 30.0898 19.2 27.7334 19.2C25.377 19.2 23.4668 17.2897 23.4668 14.9333M32.0001 14.9333C32.0001 12.5769 30.0898 10.6667 27.7334 10.6667C25.377 10.6667 23.4668 12.5769 23.4668 14.9333M32.0001 14.9333H39.0668H50.4001C56.2668 14.9333 56.2668 25.6 50.4001 25.6H49.0668M23.4668 14.9333H13.6001M49.0668 25.6C49.0668 27.9564 47.1565 29.8667 44.8001 29.8667C42.4437 29.8667 40.5334 27.9564 40.5334 25.6M49.0668 25.6C49.0668 23.2436 47.1565 21.3333 44.8001 21.3333C42.4437 21.3333 40.5334 23.2436 40.5334 25.6M40.5334 25.6H32.0001H13.6001C8.26676 25.6 8.26676 37.3333 13.6001 37.3333H14.9334M40.5334 48C40.5334 50.3564 38.6232 52.2667 36.2668 52.2667C33.9104 52.2667 32.0001 50.3564 32.0001 48M40.5334 48C40.5334 45.6436 38.6232 43.7333 36.2668 43.7333C33.9104 43.7333 32.0001 45.6436 32.0001 48M40.5334 48H43.3334H50.4001C56.2668 48 56.2668 37.3333 50.4001 37.3333H32.0001H22.8001M32.0001 48H24.9334H13.6001M14.9334 37.3333C14.9334 39.6897 16.8437 41.6 19.2001 41.6C21.5565 41.6 23.4668 39.6897 23.4668 37.3333C23.4668 34.9769 21.5565 33.0667 19.2001 33.0667C16.8437 33.0667 14.9334 34.9769 14.9334 37.3333Z" stroke="black"/>
</svg>
