<svg viewBox="0 0 512 512" fill="none" xmlns="http://www.w3.org/2000/svg">
<mask id="path-1-inside-1" fill="white">
<path d="M437.731 360.865C379.741 461.307 251.307 495.721 150.865 437.731C50.4239 379.741 16.0101 251.307 74 150.865C131.99 50.4239 260.424 16.0101 360.865 74C461.307 131.99 495.721 260.424 437.731 360.865Z"/>
</mask>
<path d="M326.879 296.865L341.602 305.365L326.879 296.865ZM184.452 215.212L169.73 206.712L184.452 215.212ZM341.278 79.5L141.278 425.91L170.722 442.91L370.722 96.5L341.278 79.5ZM437.91 341.278L91.5 141.278L74.5 170.722L420.91 370.722L437.91 341.278ZM341.602 305.365C366.545 262.163 405.632 232.271 449.666 218.128L439.27 185.757C387.511 202.38 341.483 237.571 312.157 288.365L341.602 305.365ZM320.217 443.178C310.259 397.801 316.547 348.761 341.602 305.365L312.157 288.365C282.7 339.387 275.303 397.132 287.007 450.466L320.217 443.178ZM169.73 206.712C144.787 249.915 105.7 279.807 61.6652 293.95L72.0621 326.321C123.82 309.698 169.849 274.506 199.175 223.712L169.73 206.712ZM191.115 68.8998C201.073 114.277 194.784 163.317 169.73 206.712L199.175 223.712C228.632 172.691 236.029 114.946 224.325 61.6118L191.115 68.8998ZM408.286 343.865C359.685 428.045 252.045 456.887 167.865 408.286L133.865 467.176C250.569 534.554 399.797 494.569 467.176 377.865L408.286 343.865ZM167.865 408.286C83.6858 359.685 54.8438 252.045 103.445 167.865L44.5551 133.865C-22.8236 250.569 17.1619 399.797 133.865 467.176L167.865 408.286ZM103.445 167.865C152.046 83.6858 259.686 54.8438 343.865 103.445L377.865 44.5551C261.162 -22.8236 111.934 17.1619 44.5551 133.865L103.445 167.865ZM343.865 103.445C428.045 152.046 456.887 259.686 408.286 343.865L467.176 377.865C534.554 261.162 494.569 111.934 377.865 44.5551L343.865 103.445Z" fill="currentColor" mask="url(#path-1-inside-1)"/>
</svg>