<svg viewBox="0 0 16 16" fill="none" xmlns="http://www.w3.org/2000/svg">
<g id="basketball">
<g id="Group">
<path id="Vector" d="M13.6568 2.34313C12.1458 0.832125 10.1369 0 8 0C5.86312 0 3.85416 0.832125 2.34316 2.34313C0.832125 3.85416 0 5.86312 0 8C0 10.1369 0.832125 12.1458 2.34316 13.6569C3.85416 15.1679 5.86312 16 8 16C10.1369 16 12.1458 15.1679 13.6568 13.6569C15.1679 12.1458 16 10.1369 16 8C16 5.86312 15.1679 3.85416 13.6568 2.34313ZM7.88725 15.0579C6.26278 15.0322 4.64581 14.4509 3.34878 13.3142L8 8.66291L8.6795 9.34244C8.06731 10.0893 7.68378 11.0199 7.5635 12.0617C7.45341 13.0149 7.56537 14.0394 7.88725 15.0579ZM9.34709 10.01L12.6512 13.3141C11.5532 14.2764 10.2261 14.841 8.85903 15.0071C8.19116 13.1085 8.37547 11.26 9.34709 10.01ZM10.01 9.34709C11.26 8.37547 13.1085 8.19116 15.0071 8.85903C14.841 10.2261 14.2764 11.5532 13.3141 12.6512L10.01 9.34709ZM15.0578 7.88725C14.0393 7.56537 13.0149 7.45344 12.0617 7.56353C11.0199 7.68384 10.0892 8.06738 9.34241 8.67953L8.66291 8L13.3141 3.34878C14.4509 4.64581 15.0322 6.26275 15.0578 7.88725ZM5.99 6.65291C4.73997 7.62453 2.89156 7.80884 0.992938 7.14097C1.15903 5.77394 1.72359 4.44675 2.68587 3.34878L5.99 6.65291ZM3.34878 2.68587C4.44675 1.72359 5.77394 1.15903 7.14097 0.992938C7.80884 2.89153 7.62453 4.73997 6.65291 5.99L3.34878 2.68587ZM8.4365 3.93828C8.54659 2.98506 8.43462 1.96062 8.11275 0.942125C9.73722 0.967844 11.3542 1.54909 12.6512 2.68584L8 7.33709L7.3205 6.65756C7.93266 5.91075 8.31619 4.98006 8.4365 3.93828ZM0.942156 8.11244C1.70628 8.35391 2.47366 8.47766 3.21191 8.47766C3.45762 8.47766 3.70025 8.464 3.93831 8.43653C4.98009 8.31622 5.91075 7.93269 6.65759 7.32053L7.33709 8L2.68587 12.6512C1.54906 11.3541 0.967781 9.737 0.942156 8.11244Z" fill="white"/>
</g>
</g>
</svg>
