<svg viewBox="0 0 16 16" fill="none" xmlns="http://www.w3.org/2000/svg">
<g id="console">
<g clip-path="url(#clip0)">
<g id="Group">
<path id="Vector" d="M14.9368 5.4399C14.2139 4.68968 13.2423 4.27649 12.2008 4.27649H8.23442V3.24259C8.23442 2.70162 7.79429 2.26149 7.25329 2.26149H6.58426C6.30217 2.26149 6.07267 2.03199 6.07267 1.7499V0.801461C6.07267 0.671805 5.96757 0.566711 5.83792 0.566711C5.70826 0.566711 5.60317 0.671805 5.60317 0.801461V1.74987C5.60317 2.29084 6.04329 2.73096 6.58426 2.73096H7.25329C7.53539 2.73096 7.76492 2.96046 7.76492 3.24255V4.27646H5.48189C5.35223 4.27646 5.24714 4.38155 5.24714 4.51121C5.24714 4.64087 5.35223 4.74596 5.48189 4.74596H12.2007C13.1135 4.74596 13.9651 5.10809 14.5986 5.76562C15.2318 6.42284 15.5618 7.28834 15.5277 8.20274C15.4625 9.95612 14.0675 11.3381 12.3271 11.4021C11.8608 10.6529 11.0301 10.1529 10.0844 10.1529C9.93001 10.1529 9.77892 10.167 9.6317 10.1925C9.56789 10.1151 9.50695 10.0346 9.45048 9.95196C9.31729 9.75724 9.09892 9.64099 8.86629 9.64099H7.13264C6.89995 9.64099 6.68214 9.75652 6.55004 9.95002C5.9282 10.8609 4.89957 11.4047 3.79848 11.4047C2.90701 11.4047 2.06948 11.0569 1.44017 10.4255C0.810885 9.79402 0.46601 8.95521 0.469104 8.06352C0.475416 6.23421 1.98635 4.74593 3.83717 4.74593H4.29535C4.42501 4.74593 4.5301 4.64084 4.5301 4.51118C4.5301 4.38152 4.42501 4.27643 4.29535 4.27643H3.83717C1.72835 4.27643 0.00682228 5.97459 -0.000396468 8.0619C-0.00389647 9.07927 0.389603 10.0364 1.1076 10.7569C1.82563 11.4774 2.78129 11.8742 3.79848 11.8742C5.05485 11.8742 6.22842 11.2538 6.93782 10.2147C6.98239 10.1495 7.0552 10.1105 7.13267 10.1105H8.86632C8.94382 10.1105 9.01735 10.1503 9.06295 10.217C9.08842 10.2542 9.11489 10.291 9.14179 10.3275C8.15026 10.7078 7.44423 11.6693 7.44423 12.7931C7.44423 14.2489 8.6286 15.4332 10.0844 15.4332C10.574 15.4332 11.052 15.2982 11.467 15.0427C11.5774 14.9747 11.6118 14.8301 11.5438 14.7197C11.4758 14.6093 11.3312 14.575 11.2208 14.6429C10.8799 14.8528 10.487 14.9637 10.0844 14.9637C8.88748 14.9637 7.9137 13.99 7.9137 12.7931C7.9137 11.5961 8.88748 10.6224 10.0844 10.6224C11.2813 10.6224 12.2551 11.5961 12.2551 12.7931C12.2551 13.1883 12.1479 13.5751 11.9451 13.9116C11.8782 14.0226 11.914 14.1669 12.025 14.2338C12.1361 14.3007 12.2803 14.265 12.3473 14.1539C12.5941 13.7443 12.7246 13.2737 12.7246 12.793C12.7246 12.4639 12.6635 12.1489 12.553 11.8581C14.4407 11.6866 15.9249 10.1506 15.9969 8.22018C16.0358 7.17721 15.6592 6.18977 14.9368 5.4399Z" fill="white"/>
<path id="Vector_2" d="M12.2303 5.77347C11.7809 5.77347 11.4152 6.13912 11.4152 6.58859C11.4152 7.03806 11.7809 7.40372 12.2303 7.40372C12.6798 7.40372 13.0454 7.03806 13.0454 6.58859C13.0455 6.13916 12.6798 5.77347 12.2303 5.77347ZM12.2303 6.93425C12.0397 6.93425 11.8847 6.77919 11.8847 6.58859C11.8847 6.398 12.0397 6.24294 12.2303 6.24294C12.4209 6.24294 12.576 6.398 12.576 6.58859C12.576 6.77919 12.4209 6.93425 12.2303 6.93425Z" fill="white"/>
<path id="Vector_3" d="M12.2303 8.70654C11.7809 8.70654 11.4152 9.0722 11.4152 9.52167C11.4152 9.97114 11.7809 10.3368 12.2303 10.3368C12.6798 10.3368 13.0454 9.97114 13.0454 9.52167C13.0454 9.0722 12.6798 8.70654 12.2303 8.70654ZM12.2303 9.86732C12.0397 9.86732 11.8847 9.71226 11.8847 9.52167C11.8847 9.33107 12.0397 9.17601 12.2303 9.17601C12.4209 9.17601 12.576 9.33104 12.576 9.52167C12.576 9.71229 12.4209 9.86732 12.2303 9.86732Z" fill="white"/>
<path id="Vector_4" d="M13.6968 8.87027C14.1463 8.87027 14.512 8.50461 14.512 8.05515C14.512 7.60568 14.1463 7.24002 13.6968 7.24002C13.2474 7.24002 12.8817 7.60568 12.8817 8.05515C12.8817 8.50461 13.2474 8.87027 13.6968 8.87027ZM13.6968 7.70949C13.8874 7.70949 14.0425 7.86455 14.0425 8.05515C14.0425 8.24574 13.8874 8.40077 13.6968 8.40077C13.5063 8.40077 13.3512 8.24574 13.3512 8.05515C13.3512 7.86455 13.5063 7.70949 13.6968 7.70949Z" fill="white"/>
<path id="Vector_5" d="M10.7638 7.24002C10.3143 7.24002 9.94868 7.60568 9.94868 8.05515C9.94868 8.50461 10.3143 8.87027 10.7638 8.87027C11.2133 8.87027 11.5789 8.50461 11.5789 8.05515C11.579 7.60568 11.2133 7.24002 10.7638 7.24002ZM10.7638 8.40077C10.5732 8.40077 10.4182 8.24574 10.4182 8.05515C10.4182 7.86455 10.5732 7.70949 10.7638 7.70949C10.9544 7.70949 11.1095 7.86455 11.1095 8.05515C11.1095 8.24574 10.9544 8.40077 10.7638 8.40077Z" fill="white"/>
<path id="Vector_6" d="M3.77725 5.83536C3.32047 5.8092 2.90784 6.20701 2.91775 6.66427V7.17742H2.41884C1.96197 7.17742 1.59159 7.52858 1.57572 7.97686C1.57109 8.10642 1.67244 8.2152 1.802 8.2198C1.93287 8.22477 2.04031 8.12311 2.0449 7.99352C2.05169 7.80239 2.21944 7.64692 2.41884 7.64692H3.02728C3.22575 7.64692 3.38722 7.48545 3.38722 7.28698V6.66427C3.38315 6.46561 3.56162 6.2933 3.76053 6.30455C3.95162 6.31136 4.10712 6.47914 4.10712 6.67851V7.28695C4.10712 7.48542 4.26859 7.64689 4.46706 7.64689H5.07553C5.27494 7.64689 5.44269 7.80239 5.44947 7.99352C5.46094 8.19198 5.28831 8.37105 5.08978 8.3668H4.46706C4.26859 8.3668 4.10712 8.52827 4.10712 8.72674V9.34945C4.11144 9.54817 3.93222 9.7203 3.73381 9.70917C3.54272 9.70236 3.38722 9.53458 3.38722 9.3352V8.72677C3.38722 8.5283 3.22575 8.36683 3.02728 8.36683H2.77869C2.64903 8.36683 2.54394 8.47192 2.54394 8.60158C2.54394 8.73124 2.64903 8.83633 2.77869 8.83633H2.91772V9.33524C2.91772 9.79208 3.26887 10.1625 3.71712 10.1784C4.1729 10.2051 4.58697 9.80649 4.57662 9.34949V8.83633H5.08981C5.54697 8.84627 5.94503 8.43361 5.91872 7.97689C5.90281 7.52861 5.53247 7.17745 5.07559 7.17745H4.57666V6.67855C4.57662 6.22167 4.2255 5.8513 3.77725 5.83536Z" fill="white"/>
<path id="Vector_7" d="M10.0848 14.0146C10.2144 14.0146 10.3195 13.9095 10.3195 13.7798V13.0346H11.0648C11.1944 13.0346 11.2995 12.9295 11.2995 12.7998C11.2995 12.6702 11.1944 12.5651 11.0648 12.5651H10.3195V11.8198C10.3195 11.6902 10.2144 11.5851 10.0848 11.5851C9.95513 11.5851 9.85003 11.6902 9.85003 11.8198V12.5651H9.10478C8.97513 12.5651 8.87003 12.6702 8.87003 12.7998C8.87003 12.9295 8.97513 13.0346 9.10478 13.0346H9.85003V13.7798C9.85003 13.9095 9.95513 14.0146 10.0848 14.0146Z" fill="white"/>
</g>
</g>
</g>
<defs>
<clipPath id="clip0">
<rect width="16" height="16" fill="white"/>
</clipPath>
</defs>
</svg>
