<svg viewBox="0 0 512 512" fill="none" xmlns="http://www.w3.org/2000/svg">
<path d="M357.409 287.733L351.142 271.93L345.644 274.111L342.686 279.233L357.409 287.733ZM251.909 470.464L266.631 478.964L266.631 478.964L251.909 470.464ZM206.01 443.964L191.287 435.464L191.287 435.464L206.01 443.964ZM311.51 261.233L326.232 269.733L329.189 264.611L328.329 258.759L311.51 261.233ZM302.601 200.664L287.878 192.164L284.921 197.286L285.782 203.137L302.601 200.664ZM349.101 120.123L363.823 128.623L363.823 128.623L349.101 120.123ZM378.47 112.254L369.97 126.976L378.47 112.254ZM386.34 141.623L401.062 150.123L401.062 150.123L386.34 141.623ZM460.818 184.623L475.54 193.123L460.818 184.623ZM414.318 265.164L420.585 280.966L426.083 278.786L429.04 273.664L414.318 265.164ZM423.579 163.123L438.301 171.623L438.301 171.623L423.579 163.123ZM52.3607 362.091L37.6383 353.591L37.6383 353.591L52.3607 362.091ZM98.2601 388.591L83.5377 380.091L83.5377 380.091L98.2601 388.591ZM139.389 211.355L124.666 202.855L124.666 202.855L139.389 211.355ZM185.288 237.855L200.01 246.355L185.288 237.855ZM275.746 81.1775L261.023 72.6775L275.746 81.1775ZM229.846 54.6775L244.569 63.1775L244.569 63.1775L229.846 54.6775ZM342.686 279.233L237.186 461.964L266.631 478.964L372.131 296.233L342.686 279.233ZM220.732 452.464L326.232 269.733L296.787 252.733L191.287 435.464L220.732 452.464ZM224.209 465.441C219.665 462.818 218.109 457.008 220.732 452.464L191.287 435.464C179.275 456.27 186.403 482.874 207.209 494.886L224.209 465.441ZM237.186 461.964C234.563 466.508 228.753 468.065 224.209 465.441L207.209 494.886C228.015 506.898 254.619 499.77 266.631 478.964L237.186 461.964ZM317.323 209.164L363.823 128.623L334.378 111.623L287.878 192.164L317.323 209.164ZM369.97 126.976C372.122 128.219 372.86 130.971 371.617 133.123L401.062 150.123C411.694 131.709 405.384 108.163 386.97 97.5312L369.97 126.976ZM386.97 97.5312C368.556 86.8998 345.01 93.209 334.378 111.623L363.823 128.623C365.066 126.471 367.818 125.733 369.97 126.976L386.97 97.5312ZM446.095 176.123L399.595 256.664L429.04 273.664L475.54 193.123L446.095 176.123ZM444.448 169.976C446.601 171.219 447.338 173.971 446.095 176.123L475.54 193.123C486.172 174.709 479.863 151.163 461.448 140.531L444.448 169.976ZM461.448 140.531C443.034 129.9 419.488 136.209 408.856 154.623L438.301 171.623C439.544 169.471 442.296 168.733 444.448 169.976L461.448 140.531ZM408.856 154.623L388.856 189.264L418.301 206.264L438.301 171.623L408.856 154.623ZM381.062 184.764L401.062 150.123L371.617 133.123L351.617 167.764L381.062 184.764ZM407.209 148.476C409.362 149.719 410.099 152.471 408.856 154.623L438.301 171.623C448.933 153.209 442.623 129.663 424.209 119.031L407.209 148.476ZM424.209 119.031C405.795 108.4 382.249 114.709 371.617 133.123L401.062 150.123C402.305 147.971 405.057 147.233 407.209 148.476L424.209 119.031ZM285.782 203.137L294.69 263.707L328.329 258.759L319.42 198.19L285.782 203.137ZM363.676 303.535L420.585 280.966L408.051 249.361L351.142 271.93L363.676 303.535ZM173.995 223.414L83.5377 380.091L112.983 397.091L203.44 240.414L173.995 223.414ZM67.0832 370.591L157.541 213.914L128.096 196.914L37.6383 353.591L67.0832 370.591ZM72.4496 380.296C69.4905 378.588 67.7831 376.226 67.0851 374.242C66.4026 372.303 66.7569 371.157 67.0832 370.591L37.6383 353.591C25.4898 374.633 36.8501 399.003 55.4496 409.741L72.4496 380.296ZM83.5377 380.091C83.2114 380.657 82.3952 381.537 80.3748 381.915C78.3082 382.302 75.4088 382.005 72.4496 380.296L55.4496 409.741C74.0492 420.48 100.834 418.133 112.983 397.091L83.5377 380.091ZM261.023 72.6775L170.566 229.355L200.01 246.355L290.468 89.6775L261.023 72.6775ZM154.111 219.855L244.569 63.1775L215.124 46.1775L124.666 202.855L154.111 219.855ZM159.478 229.56C156.518 227.851 154.811 225.489 154.113 223.506C153.431 221.567 153.785 220.42 154.111 219.855L124.666 202.855C112.518 223.896 123.878 248.266 142.478 259.005L159.478 229.56ZM170.566 229.355C170.239 229.92 169.423 230.8 167.403 231.179C165.336 231.566 162.437 231.268 159.478 229.56L142.478 259.005C161.077 269.743 187.862 267.396 200.01 246.355L170.566 229.355ZM255.657 62.9725C258.616 64.6809 260.323 67.0431 261.021 69.0264C261.704 70.9654 261.349 72.1123 261.023 72.6775L290.468 89.6775C302.617 68.6356 291.256 44.266 272.657 33.5276L255.657 62.9725ZM272.657 33.5276C254.057 22.7891 227.272 25.1356 215.124 46.1775L244.569 63.1775C244.895 62.6123 245.711 61.7321 247.732 61.3536C249.798 60.9664 252.698 61.264 255.657 62.9725L272.657 33.5276Z" fill="currentColor"/>
</svg>