<svg viewBox="0 0 512 512" fill="none" xmlns="http://www.w3.org/2000/svg">
<path d="M105.506 261.839L120.228 270.339L105.506 261.839ZM63.2709 237.455L48.5485 228.955L48.5485 228.955L63.2709 237.455ZM85.3547 199.205L100.077 207.705L100.077 207.705L85.3547 199.205ZM127.589 223.589L112.867 215.089L127.589 223.589ZM165.952 200.621L156.939 186.207L156.939 186.207L165.952 200.621ZM173.007 195.194L183.694 208.416L183.694 208.416L173.007 195.194ZM203.334 228.578L188.612 220.078L188.612 220.078L203.334 228.578ZM102.496 310.53L85.5063 309.932L85.5063 309.932L102.496 310.53ZM101.324 319.354L118.117 321.998L118.117 321.998L101.324 319.354ZM145.398 328.926L160.121 337.426L160.121 337.426L145.398 328.926ZM349.351 402.623L334.628 394.123L334.628 394.123L349.351 402.623ZM391.586 427.007L376.863 418.507L376.863 418.507L391.586 427.007ZM413.669 388.757L428.392 397.257L428.392 397.257L413.669 388.757ZM371.435 364.373L386.157 372.873L386.157 372.873L371.435 364.373ZM372.144 319.666L389.134 320.264L389.134 320.264L372.144 319.666ZM373.316 310.843L356.523 308.199L356.523 308.199L373.316 310.843ZM329.242 301.27L343.964 309.77L343.964 309.77L329.242 301.27ZM308.688 429.575L317.7 443.99L317.7 443.99L308.688 429.575ZM301.633 435.002L290.946 421.781L290.946 421.781L301.633 435.002ZM271.305 401.619L256.583 393.119L256.583 393.119L271.305 401.619ZM70.6323 190.705L48.5485 228.955L77.9934 245.955L100.077 207.705L70.6323 190.705ZM120.228 270.339L142.312 232.089L112.867 215.089L90.7832 253.339L120.228 270.339ZM63.6962 285.487C83.4899 296.915 108.8 290.133 120.228 270.339L90.7832 253.339C88.7441 256.871 84.228 258.081 80.6962 256.042L63.6962 285.487ZM48.5485 228.955C37.1206 248.749 43.9024 274.059 63.6962 285.487L80.6962 256.042C77.1644 254.003 75.9543 249.487 77.9934 245.955L48.5485 228.955ZM100.077 207.705C102.116 204.173 106.632 202.963 110.164 205.002L127.164 175.557C107.37 164.129 82.0602 170.911 70.6323 190.705L100.077 207.705ZM142.312 232.089C153.74 212.295 146.958 186.985 127.164 175.557L110.164 205.002C113.696 207.041 114.906 211.557 112.867 215.089L142.312 232.089ZM371.421 82.8277C312.771 48.966 253.07 47.584 199.63 70.1623C146.796 92.485 101.262 137.653 68.1018 195.088L97.5467 212.088C128.066 159.227 168.572 120.195 212.863 101.482C256.548 83.0243 305.056 83.7712 354.421 112.273L371.421 82.8277ZM135.682 239.596L174.964 215.036L156.939 186.207L117.658 210.767L135.682 239.596ZM183.694 208.416C185.617 206.861 186.654 206.966 186.819 206.98C187.177 207.01 187.918 207.213 188.769 208.113C190.268 209.698 192.204 213.856 188.612 220.078L218.057 237.078C228.871 218.347 225.704 197.683 213.468 184.748C207.452 178.388 199.167 173.908 189.702 173.102C180.043 172.28 170.458 175.397 162.321 181.973L183.694 208.416ZM174.964 215.036C178.635 212.74 182.249 209.583 183.694 208.416L162.321 181.973C159.156 184.532 158.294 185.36 156.939 186.207L174.964 215.036ZM87.1351 263.633L85.5063 309.932L119.485 311.128L121.114 264.829L87.1351 263.633ZM84.5308 316.71C82.9037 327.044 84.9975 336.904 90.5385 344.858C95.9689 352.652 103.991 357.587 112.507 359.617C129.827 363.747 149.306 356.157 160.121 337.426L130.676 320.426C127.084 326.648 122.514 327.05 120.393 326.544C119.188 326.257 118.641 325.717 118.436 325.422C118.341 325.286 117.732 324.441 118.117 321.998L84.5308 316.71ZM85.5063 309.932C85.4502 311.529 85.1638 312.689 84.5308 316.71L118.117 321.998C118.406 320.163 119.333 315.455 119.485 311.128L85.5063 309.932ZM398.947 380.257L376.863 418.507L406.308 435.507L428.392 397.257L398.947 380.257ZM364.073 411.123L386.157 372.873L356.712 355.873L334.628 394.123L364.073 411.123ZM366.776 421.21C363.244 419.171 362.034 414.655 364.073 411.123L334.628 394.123C323.2 413.917 329.982 439.227 349.776 450.655L366.776 421.21ZM376.863 418.507C374.824 422.039 370.308 423.249 366.776 421.21L349.776 450.655C369.57 462.083 394.88 455.301 406.308 435.507L376.863 418.507ZM428.392 397.257C439.82 377.463 433.038 352.153 413.244 340.725L396.244 370.17C399.776 372.209 400.986 376.725 398.947 380.257L428.392 397.257ZM386.157 372.873C388.196 369.341 392.712 368.131 396.244 370.17L413.244 340.725C393.45 329.297 368.14 336.079 356.712 355.873L386.157 372.873ZM354.421 112.273C403.787 140.774 428.688 182.409 434.546 229.471C440.485 277.184 426.936 331.779 396.416 384.64L425.861 401.64C459.021 344.206 475.371 282.188 468.286 225.271C461.119 167.702 430.072 116.689 371.421 82.8277L354.421 112.273ZM387.505 366.563L389.134 320.264L355.155 319.069L353.526 365.368L387.505 366.563ZM390.109 313.487C391.736 303.152 389.642 293.292 384.101 285.339C378.671 277.544 370.649 272.61 362.133 270.579C344.813 266.45 325.334 274.039 314.519 292.77L343.964 309.77C347.556 303.549 352.126 303.146 354.247 303.652C355.452 303.94 355.999 304.479 356.204 304.774C356.299 304.91 356.908 305.755 356.523 308.199L390.109 313.487ZM389.134 320.264C389.19 318.668 389.476 317.507 390.109 313.487L356.523 308.199C356.234 310.033 355.307 314.742 355.155 319.069L389.134 320.264ZM338.958 390.601L299.676 415.161L317.7 443.99L356.982 419.43L338.958 390.601ZM290.946 421.781C289.023 423.336 287.986 423.231 287.821 423.217C287.463 423.186 286.722 422.983 285.871 422.083C284.372 420.499 282.436 416.34 286.028 410.119L256.583 393.119C245.769 411.85 248.936 432.514 261.172 445.449C267.188 451.808 275.473 456.289 284.938 457.094C294.597 457.916 304.182 454.8 312.319 448.223L290.946 421.781ZM299.676 415.161C296.005 417.456 292.391 420.613 290.946 421.781L312.319 448.223C315.484 445.665 316.346 444.837 317.7 443.99L299.676 415.161ZM188.612 220.078L130.676 320.426L160.121 337.426L218.057 237.078L188.612 220.078ZM314.519 292.77L256.583 393.119L286.028 410.119L343.964 309.77L314.519 292.77Z" fill="currentColor"/>
</svg>