<svg viewBox="0 0 16 16" fill="none" xmlns="http://www.w3.org/2000/svg">
<path d="M8 0.96875C3.60594 0.96875 0 4.54344 0 8.9375V12.6875C0 13.4629 0.630813 14.0938 1.40625 14.0938H1.875V9.40625H1.40625C1.24112 9.40625 1.08484 9.44006 0.9375 9.49259V8.9375C0.9375 5.06025 4.12275 1.90625 8 1.90625C11.8772 1.90625 15.0625 5.06025 15.0625 8.9375V9.49259C14.9152 9.44006 14.7589 9.40625 14.5938 9.40625H14.125V14.0938H14.5938C15.3692 14.0938 16 13.4629 16 12.6875V8.9375C16 4.54344 12.3941 0.96875 8 0.96875Z" fill="white"/>
<path d="M4.21875 8.46875H3.75C3.23222 8.46875 2.8125 8.88847 2.8125 9.40625V14.0938C2.8125 14.6115 3.23222 15.0312 3.75 15.0312H4.21875C4.47763 15.0312 4.6875 14.8214 4.6875 14.5625V8.9375C4.6875 8.67862 4.47763 8.46875 4.21875 8.46875Z" fill="white"/>
<path d="M12.25 8.46875H11.7812C11.5224 8.46875 11.3125 8.67862 11.3125 8.9375V14.5625C11.3125 14.8214 11.5224 15.0312 11.7812 15.0312H12.25C12.7678 15.0312 13.1875 14.6115 13.1875 14.0938V9.40625C13.1875 8.88847 12.7678 8.46875 12.25 8.46875Z" fill="white"/>
</svg>
