<svg viewBox="0 0 16 10" fill="none" xmlns="http://www.w3.org/2000/svg">
<path id="workout" d="M14.9677 4.00003V1.7501C14.9678 1.57392 14.9199 1.40085 14.8287 1.24843C14.7375 1.096 14.6063 0.969638 14.4485 0.882149C14.2906 0.79466 14.1117 0.749153 13.9298 0.750241C13.748 0.751329 13.5696 0.798974 13.4129 0.888345C13.3835 0.634398 13.2548 0.401008 13.0532 0.236096C12.8517 0.0711833 12.5927 -0.0127357 12.3293 0.00156918C12.0659 0.015874 11.8182 0.127317 11.637 0.313017C11.4558 0.498716 11.3548 0.744579 11.3548 1.00012V4.00003H4.64516V1.00012C4.64484 0.744817 4.54372 0.4993 4.36254 0.313894C4.18136 0.128488 3.93383 0.0172379 3.67069 0.00294529C3.40756 -0.0113473 3.14874 0.0724006 2.9473 0.237023C2.74585 0.401646 2.61704 0.634675 2.58726 0.888345C2.43053 0.798934 2.25218 0.751258 2.07029 0.75015C1.88841 0.749042 1.70946 0.794541 1.55158 0.882035C1.3937 0.969529 1.26251 1.09591 1.1713 1.24835C1.0801 1.4008 1.03213 1.5739 1.03226 1.7501V4.00003C0.758486 4.00003 0.495927 4.10538 0.302341 4.29292C0.108755 4.48045 0 4.73479 0 5C0 5.26521 0.108755 5.51955 0.302341 5.70708C0.495927 5.89462 0.758486 5.99997 1.03226 5.99997V8.2499C1.03213 8.4261 1.0801 8.5992 1.1713 8.75164C1.26251 8.90409 1.3937 9.03047 1.55158 9.11796C1.70946 9.20546 1.88841 9.25096 2.07029 9.24985C2.25218 9.24874 2.43053 9.20107 2.58726 9.11165C2.61704 9.36532 2.74585 9.59835 2.9473 9.76298C3.14874 9.9276 3.40756 10.0113 3.67069 9.99705C3.93383 9.98276 4.18136 9.87151 4.36254 9.6861C4.54372 9.5007 4.64484 9.25518 4.64516 8.99988V5.99997H11.3548V8.99988C11.3548 9.25542 11.4558 9.50128 11.637 9.68698C11.8182 9.87268 12.0659 9.98413 12.3293 9.99843C12.5927 10.0127 12.8517 9.92882 13.0532 9.7639C13.2548 9.59899 13.3835 9.3656 13.4129 9.11165C13.5696 9.20103 13.748 9.24867 13.9298 9.24976C14.1117 9.25085 14.2906 9.20534 14.4485 9.11785C14.6063 9.03036 14.7375 8.904 14.8287 8.75157C14.9199 8.59915 14.9678 8.42607 14.9677 8.2499V5.99997C15.2415 5.99997 15.5041 5.89462 15.6977 5.70708C15.8912 5.51955 16 5.26521 16 5C16 4.73479 15.8912 4.48045 15.6977 4.29292C15.5041 4.10538 15.2415 4.00003 14.9677 4.00003ZM1.03226 5.49998C0.895372 5.49998 0.764093 5.44731 0.6673 5.35354C0.570507 5.25978 0.516129 5.1326 0.516129 5C0.516129 4.8674 0.570507 4.74022 0.6673 4.64646C0.764093 4.55269 0.895372 4.50002 1.03226 4.50002V5.49998ZM2.06452 8.74988C1.92768 8.74973 1.79649 8.697 1.69974 8.60327C1.60298 8.50954 1.54855 8.38245 1.54839 8.2499V1.7501C1.54839 1.6175 1.60276 1.49032 1.69956 1.39656C1.79635 1.30279 1.92763 1.25012 2.06452 1.25012C2.2014 1.25012 2.33268 1.30279 2.42947 1.39656C2.52627 1.49032 2.58065 1.6175 2.58065 1.7501V8.2499C2.58048 8.38245 2.52605 8.50954 2.4293 8.60327C2.33254 8.697 2.20135 8.74973 2.06452 8.74988ZM4.12903 8.99988C4.12903 9.13248 4.07465 9.25965 3.97786 9.35342C3.88107 9.44718 3.74979 9.49986 3.6129 9.49986C3.47602 9.49986 3.34474 9.44718 3.24794 9.35342C3.15115 9.25965 3.09677 9.13248 3.09677 8.99988V1.00012C3.09677 0.867519 3.15115 0.740346 3.24794 0.646581C3.34474 0.552815 3.47602 0.500139 3.6129 0.500139C3.74979 0.500139 3.88107 0.552815 3.97786 0.646581C4.07465 0.740346 4.12903 0.867519 4.12903 1.00012V8.99988ZM4.64516 5.49998V4.50002H11.3548V5.49998H4.64516ZM12.9032 8.99988C12.9032 9.13248 12.8488 9.25965 12.7521 9.35342C12.6553 9.44718 12.524 9.49986 12.3871 9.49986C12.2502 9.49986 12.1189 9.44718 12.0221 9.35342C11.9253 9.25965 11.871 9.13248 11.871 8.99988V1.00012C11.871 0.867519 11.9253 0.740346 12.0221 0.646581C12.1189 0.552815 12.2502 0.500139 12.3871 0.500139C12.524 0.500139 12.6553 0.552815 12.7521 0.646581C12.8488 0.740346 12.9032 0.867519 12.9032 1.00012V8.99988ZM14.4516 8.2499C14.4516 8.3825 14.3972 8.50968 14.3004 8.60344C14.2036 8.69721 14.0724 8.74988 13.9355 8.74988C13.7986 8.74988 13.6673 8.69721 13.5705 8.60344C13.4737 8.50968 13.4194 8.3825 13.4194 8.2499V1.7501C13.4194 1.6175 13.4737 1.49032 13.5705 1.39656C13.6673 1.30279 13.7986 1.25012 13.9355 1.25012C14.0724 1.25012 14.2036 1.30279 14.3004 1.39656C14.3972 1.49032 14.4516 1.6175 14.4516 1.7501V8.2499ZM14.9677 5.49998V4.50002C15.1046 4.50002 15.2359 4.55269 15.3327 4.64646C15.4295 4.74022 15.4839 4.8674 15.4839 5C15.4839 5.1326 15.4295 5.25978 15.3327 5.35354C15.2359 5.44731 15.1046 5.49998 14.9677 5.49998Z" fill="white"/>
</svg>
