<svg width="612" height="612" viewBox="0 0 612 612" fill="none" xmlns="http://www.w3.org/2000/svg">
<g id="clipboard-icon">
<g id="static-line">
<path id="Vector" d="M249.904 325.694C244.44 319.934 235.368 319.609 229.505 324.966L182.88 369.405L163.21 349.006C157.746 343.246 148.673 342.922 142.811 348.278C137.168 354.191 137.168 363.493 142.811 369.405L172.68 400.003C175.265 402.898 178.999 404.499 182.879 404.374C186.722 404.32 190.388 402.749 193.077 400.003L249.902 346.093C255.535 340.925 255.912 332.168 250.742 326.536C250.477 326.242 250.197 325.962 249.904 325.694Z" fill="black"/>
<path id="Vector_2" d="M458.988 357.02H291.43C283.383 357.02 276.86 363.543 276.86 371.59C276.86 379.637 283.383 386.161 291.43 386.161H458.988C467.036 386.161 473.559 379.637 473.559 371.59C473.559 363.543 467.036 357.02 458.988 357.02Z" fill="black"/>
<path id="Vector_3" d="M458.988 240.457H291.43C283.383 240.457 276.86 246.98 276.86 255.028C276.86 263.075 283.383 269.598 291.43 269.598H458.988C467.036 269.598 473.559 263.075 473.559 255.028C473.559 246.98 467.036 240.457 458.988 240.457Z" fill="black"/>
<path id="Vector_4" d="M249.904 442.255C244.44 436.495 235.368 436.172 229.505 441.528L182.88 485.966L163.21 465.567C157.746 459.807 148.673 459.484 142.811 464.84C137.168 470.752 137.168 480.054 142.811 485.966L172.68 516.564C175.265 519.459 178.999 521.06 182.879 520.936C186.722 520.881 190.388 519.31 193.077 516.564L249.902 462.654C255.535 457.487 255.912 448.73 250.742 443.098C250.477 442.805 250.197 442.525 249.904 442.255Z" fill="black"/>
<path id="Vector_5" d="M458.988 473.583H291.43C283.383 473.583 276.86 480.106 276.86 488.153C276.86 496.2 283.383 502.723 291.43 502.723H458.988C467.036 502.723 473.559 496.2 473.559 488.153C473.559 480.106 467.036 473.583 458.988 473.583Z" fill="black"/>
</g>
<path id="Vector_6" d="M485.215 80.1835H429.848V55.4144C429.848 47.4007 421.106 43.7584 413.092 43.7584H370.111C359.912 14.6177 334.413 0.0474143 305.273 0.0474143C276.453 -1.03605 250.239 16.6355 240.435 43.7584H198.181C190.167 43.7584 182.154 47.4007 182.154 55.4144V80.1835H126.785C93.9744 80.5336 67.1317 106.417 65.5895 139.193V556.632C65.5895 588.687 94.7302 611.999 126.785 611.999H485.215C517.27 611.999 546.411 588.687 546.411 556.632V139.194C544.868 106.417 518.026 80.5336 485.215 80.1835ZM211.293 72.8991H251.362C258.356 72.0457 263.974 66.7246 265.204 59.7859C269.518 40.9975 286.002 27.5106 305.273 27.003C324.365 27.5817 340.601 41.1104 344.612 59.7859C345.919 66.9644 351.908 72.3539 359.183 72.8991H400.709V131.18H211.293V72.8991ZM517.27 556.633C517.27 572.661 501.242 582.859 485.215 582.859H126.785C110.758 582.859 94.7302 572.661 94.7302 556.633V139.194C96.2166 122.511 110.038 109.631 126.785 109.326H182.152V146.48C182.922 154.643 189.992 160.749 198.18 160.322H413.091C421.43 160.778 428.721 154.756 429.846 146.48V109.324H485.213C501.959 109.631 515.782 122.51 517.268 139.193V556.633H517.27Z" fill="black"/>
<path id="dynamic-tick" d="M249.904 209.131C244.44 203.371 235.368 203.046 229.505 208.404L182.88 252.842L163.21 232.443C157.746 226.683 148.673 226.358 142.811 231.716C137.168 237.628 137.168 246.93 142.811 252.842L172.68 283.44C175.265 286.335 178.999 287.936 182.879 287.812C186.722 287.757 190.388 286.186 193.077 283.44L249.902 229.531C255.535 224.363 255.912 215.606 250.742 209.974C250.477 209.679 250.197 209.399 249.904 209.131Z" fill="black"/>
</g>
</svg>
