<svg viewBox="0 0 612 612" fill="none" xmlns="http://www.w3.org/2000/svg">
<g id="contact-icon">
<path id="Vector" d="M554.625 167.514C569.411 178.678 579.44 186.483 590.018 194.779C603.896 205.656 612 222.307 612 239.925V252.655L554.625 294.103V167.514Z" fill="currentColor"/>
<path id="Vector_2" d="M21.9818 194.779C32.5603 186.483 42.589 178.666 57.375 167.514V294.103L0 252.655V239.925C0.00117835 231.226 1.98078 222.641 5.78906 214.819C9.59734 206.998 15.1345 200.145 21.9818 194.779Z" fill="currentColor"/>
<path id="Vector_3" d="M393.748 49.5371C397.537 52.2863 400.92 54.7487 404.554 57.3783H207.447C211.08 54.7487 214.463 52.2863 218.252 49.5371C238.357 34.8707 278.269 -0.414669 306 0.00368796C333.731 -0.414669 373.655 34.8707 393.748 49.5371Z" fill="currentColor"/>
<g id="letter" className="letter">
<path className="letter" fill-rule="evenodd" clip-rule="evenodd" d="M501 107H111C108.791 107 107 108.791 107 111V556C107 558.209 108.791 560 111 560H501C503.209 560 505 558.209 505 556V111C505 108.791 503.209 107 501 107ZM111 57C81.1766 57 57 81.1766 57 111V556C57 585.823 81.1766 610 111 610H501C530.823 610 555 585.823 555 556V111C555 81.1766 530.823 57 501 57H111Z" fill="currentColor"/>
<path className="letter" d="M192 217C192 207.059 200.059 199 210 199H402C411.941 199 420 207.059 420 217V238C420 247.941 411.941 256 402 256H210C200.059 256 192 247.941 192 238V217Z" fill="currentColor"/>
<path className="letter" d="M192 332C192 322.059 200.059 314 210 314H402C411.941 314 420 322.059 420 332V353C420 362.941 411.941 371 402 371H210C200.059 371 192 362.941 192 353V332Z" fill="currentColor"/>
</g>
<path id="Vector_4" d="M306 498.601C286.373 498.601 266.746 492.553 249.988 480.445L0 299.858V554.625C0 586.313 25.6873 612 57.375 612H554.625C586.313 612 612 586.313 612 554.625V299.858L362.012 480.445C345.254 492.541 325.627 498.601 306 498.601Z" fill="currentColor"/>
</g>
</svg>
