<svg viewBox="0 0 612 612" fill="none" xmlns="http://www.w3.org/2000/svg">
<g id="exp-icon">
<g id="user-tie-solid 1">
<path id="tie" d="M365.598 346.508H246.402L286.588 410.806L246.402 584.789H365.598L325.412 410.806L365.598 346.508Z" fill="currentColor"/>
<path id="suit-man" d="M306 306C390.272 306 458.571 237.732 458.571 153.5C458.571 69.2676 390.272 1 306 1C221.728 1 153.429 69.2676 153.429 153.5C153.429 237.732 221.728 306 306 306ZM420.19 344.84L363.214 572.875H248.786L191.81 344.84C106.823 348.891 39 418.35 39 504.25V553.812C39 585.385 64.6272 611 96.2143 611H515.786C547.373 611 573 585.385 573 553.812V504.25C573 418.35 505.177 348.891 420.19 344.84Z" fill="currentColor"/>
</g>
</g>
</svg>
