<svg  viewBox="0 0 16 16" fill="none" xmlns="http://www.w3.org/2000/svg">
<g id="food">
<g clip-path="url(#clip0)">
<g id="Group">
<g id="Group_2">
<path id="Vector" d="M15.3948 13.0052C14.2872 12.0791 11.0294 9.34744 9.53549 8.01508C10.3442 7.2738 11.4765 6.17137 12.5778 5.09862C13.8385 3.87044 15.0296 2.71061 15.5693 2.25489C15.8431 2.02411 16 1.68489 16 1.32424C16 0.873056 15.7653 0.472995 15.372 0.254247C14.9807 0.0368105 14.5202 0.0475292 14.1396 0.283872C12.9111 1.0459 7.99997 4.57291 7.99997 5.33331C7.99997 5.55762 7.99082 5.82146 7.91091 6.1209C7.54369 5.49115 7.33332 4.91419 7.33332 4.66666C7.33332 4.19238 5.72167 2.64745 2.54297 0.0742478C2.41113 -0.0328453 2.21844 -0.0230954 2.09766 0.0976852L0.097674 2.09767C-0.0231065 2.21811 -0.0332002 2.41048 0.0742366 2.54298C2.64747 5.72168 4.19237 7.33333 4.66665 7.33333C4.94965 7.33333 5.66111 7.60708 6.39248 8.0787C4.91452 9.39244 1.90216 11.9207 0.605859 13.0045C0.220798 13.3265 8.08252e-05 13.8001 8.08252e-05 14.304C8.08252e-05 15.2392 0.760826 15.9999 1.69604 15.9999C2.19963 15.9999 2.67357 15.7789 2.9955 15.3935C4.1094 14.0619 6.71442 10.9581 8.00019 9.51872C9.32693 11.0047 12.0757 14.2829 13.0055 15.3948C13.3272 15.7796 13.8008 15.9999 14.304 15.9999C15.2392 15.9999 16 15.2392 16 14.304C16 13.8007 15.7796 13.3271 15.3948 13.0052ZM8.66669 5.39194C9.01728 4.84441 12.459 2.11102 14.4912 0.850306C14.6631 0.744525 14.8714 0.73865 15.0478 0.836618C15.2266 0.936243 15.3333 1.11852 15.3333 1.32424C15.3333 1.48799 15.2627 1.6413 15.1393 1.74546C14.5814 2.21649 13.3822 3.38445 12.1126 4.6211C10.9936 5.71131 9.84383 6.83043 9.04084 7.5638C8.99072 7.51636 8.93912 7.46774 8.90237 7.43099C8.70465 7.23327 8.52712 7.01764 8.36241 6.79849C8.63591 6.22468 8.66584 5.73609 8.66669 5.39194ZM2.48413 14.9658C2.28913 15.1995 2.00169 15.3333 1.69604 15.3333C1.12832 15.3333 0.666733 14.8717 0.666733 14.3039C0.666733 13.9979 0.800514 13.7109 1.03361 13.5162C2.36563 12.4021 5.50558 9.7665 6.94776 8.47685C7.11466 8.61007 7.27844 8.74973 7.43104 8.90232C7.46341 8.9347 7.50738 8.98154 7.5481 9.02435C6.27029 10.4508 3.61343 13.6159 2.48413 14.9658ZM14.304 15.3333C13.9984 15.3333 13.7116 15.1998 13.5169 14.9671C12.1025 13.2757 8.72428 9.25291 7.90235 8.43098C6.89779 7.42642 5.3773 6.67449 4.73308 6.67449C4.72983 6.67449 4.72624 6.6748 4.72299 6.6748C4.3304 6.52215 2.44794 4.40041 0.781607 2.35645L1.00004 2.13802L4.09768 5.23566C4.16278 5.30075 4.24809 5.33331 4.33337 5.33331C4.41865 5.33331 4.50393 5.30075 4.56905 5.23566C4.69927 5.10544 4.69927 4.8945 4.56905 4.76431L1.47142 1.66668L1.66673 1.47136L4.76437 4.569C4.82946 4.6341 4.91477 4.66666 5.00005 4.66666C5.08533 4.66666 5.17061 4.6341 5.23574 4.569C5.36596 4.43878 5.36596 4.22785 5.23574 4.09766L2.1381 1.00002L2.35654 0.781587C4.40046 2.44792 6.52189 4.32813 6.66673 4.66666C6.66673 5.36131 7.42129 6.89255 8.43103 7.90233C9.25296 8.72426 13.2757 12.1025 14.9671 13.5165C15.1999 13.7115 15.3333 13.9983 15.3333 14.304C15.3333 14.8717 14.8717 15.3333 14.304 15.3333Z" fill="white"/>
</g>
</g>
</g>
</g>
<defs>
<clipPath id="clip0">
<rect width="16" height="16" fill="white"/>
</clipPath>
</defs>
</svg>
