<svg viewBox="0 0 512 512" fill="none" xmlns="http://www.w3.org/2000/svg">
<g>
<circle cx="256.056" cy="255.865" r="50" transform="rotate(-45 256.056 255.865)" fill="currentColor"/>
<mask id="path-2-inside-1" fill="white">
<path d="M458.71 201.513C488.728 313.541 422.245 428.692 310.217 458.71C198.189 488.728 83.0387 422.245 53.0209 310.217C23.0031 198.189 89.4854 83.0387 201.513 53.0209C313.541 23.0031 428.692 89.4855 458.71 201.513Z"/>
</mask>
<path d="M458.71 201.513C488.728 313.541 422.245 428.692 310.217 458.71C198.189 488.728 83.0387 422.245 53.0209 310.217C23.0031 198.189 89.4854 83.0387 201.513 53.0209C313.541 23.0031 428.692 89.4855 458.71 201.513Z" stroke="currentColor" stroke-width="68" mask="url(#path-2-inside-1)"/>
<path fill-rule="evenodd" clip-rule="evenodd" d="M265.143 345.408L295.079 457.131L327.921 448.331L297.731 335.662C287.471 341.024 276.394 344.273 265.143 345.408ZM219.149 173.754C229.678 169.024 240.931 166.421 252.256 165.945L224.393 61.9608L191.552 70.7607L219.149 173.754Z" fill="currentColor"/>
<path fill-rule="evenodd" clip-rule="evenodd" d="M166.279 262.215L58.6157 291.063L67.4156 323.905L175.018 295.073C169.985 284.673 167.072 273.504 166.279 262.215ZM337.003 216.47C342.06 226.86 344.998 238.021 345.818 249.307L453.786 220.377L444.986 187.536L337.003 216.47Z" fill="currentColor"/>
<path d="M309.22 173.003L209.22 346.208" stroke="currentColor" stroke-width="34"/>
<path d="M342.287 305.661L169.082 205.661" stroke="currentColor" stroke-width="34"/>
</g>
</svg>