<svg viewBox="0 0 16 16" fill="none" xmlns="http://www.w3.org/2000/svg">
<g id="hiking">
<g clip-path="url(#clip0)">
<g id="Group">
<path id="Vector" d="M12.7243 6.07622L10.8253 5.59826L9.96766 4.61035L9.98499 4.35104C10.0199 3.82946 9.62529 3.37837 9.10372 3.34349L7.04083 3.20285C7.04083 3.20285 7.06266 3.38106 7.06667 3.43236C7.41019 3.4531 7.73585 3.60665 7.97002 3.86124C8.43851 4.37065 8.44239 5.16052 7.96627 5.67389L6.85039 6.87716L6.81126 7.46249C6.77938 7.93939 6.5049 8.34792 6.11389 8.57045L6.08802 8.95757L6.09712 8.9582C6.09728 8.96402 6.09725 8.96981 6.09756 8.97566L6.23266 11.6864L4.73801 14.9099C4.55978 15.2943 4.72691 15.7504 5.11132 15.9286C5.4956 16.1068 5.95176 15.9398 6.13 15.5553L7.70432 12.1601C7.75665 12.0472 7.78074 11.9234 7.77455 11.7991L7.63807 9.06124L7.98394 9.08436L8.8328 11.6088L9.15499 15.2993C9.19206 15.724 9.56649 16.0337 9.98596 15.9969C10.4081 15.9601 10.7204 15.588 10.6835 15.1659L10.3534 11.3842C10.3481 11.3237 10.3356 11.264 10.3163 11.2064L9.6399 9.19509L9.66102 9.1965L9.84657 6.42125L9.99153 6.58819C10.0773 6.68701 10.1914 6.75714 10.3183 6.78905L12.4122 7.31609C12.7547 7.4023 13.1021 7.19451 13.1882 6.85217C13.2744 6.50984 13.0667 6.1624 12.7243 6.07622Z" fill="white"/>
<path id="Vector_2" d="M5.13678 7.98366L6.05155 5.79571L7.40497 5.07263L6.94505 5.46129L6.89015 6.28228L7.69103 5.41869C8.01914 5.0649 8.03184 4.51033 7.69372 4.11538C7.68437 4.10446 7.67489 4.09392 7.66526 4.08379C7.43966 3.84568 7.07743 3.79798 6.78812 3.95253L5.24826 4.77521C5.11839 4.84459 5.01647 4.95667 4.95967 5.09249L3.95709 7.49043C3.82089 7.81619 3.97458 8.19068 4.30033 8.32688C4.62465 8.46251 4.99999 8.31086 5.13678 7.98366Z" fill="white"/>
<path id="Vector_3" d="M5.3421 8.37041C5.95677 8.41052 6.40142 7.96536 6.43674 7.43747L6.54634 5.79825L6.41206 5.91173L5.4849 8.12921C5.44774 8.21805 5.39922 8.29859 5.3421 8.37041Z" fill="white"/>
<path id="Vector_4" d="M4.61161 4.94697C4.65249 4.8825 4.70642 4.54921 5.0705 4.44245L6.6731 3.90223L6.69337 3.59921C6.72825 3.07764 6.33367 2.62654 5.8121 2.59167C4.67048 2.47915 4.71068 2.47693 4.62687 2.47693C4.13292 2.47693 3.71686 2.86021 3.68342 3.36032L3.51072 5.9431C3.12797 6.04454 2.83656 6.38044 2.80884 6.79484L2.79439 7.01118C2.76242 7.4893 3.10194 7.90361 3.5598 7.97991C3.50937 7.77561 3.5216 7.55396 3.609 7.34491L4.61161 4.94697Z" fill="white"/>
<path id="Vector_5" d="M8.4838 2.79926C9.25593 2.85087 9.92367 2.26683 9.97532 1.4947C10.0269 0.722569 9.44289 0.0548216 8.67076 0.00317727C7.89863 -0.048467 7.23089 0.535604 7.17924 1.30773C7.12763 2.07987 7.7117 2.74761 8.4838 2.79926Z" fill="white"/>
</g>
<g id="937363 1">
<g id="Group_2">
<g id="Group_3">
<path id="Vector_6" d="M3 -225C-137.61 -225 -253 -110.61 -253 30V150C-253 174.814 -232.814 195 -208 195H-193V45H-208C-213.284 45 -218.285 46.082 -223 47.763V30C-223 -94.072 -121.072 -195 3 -195C127.072 -195 229 -94.072 229 30V47.763C224.285 46.082 219.284 45 214 45H199V195H214C238.814 195 259 174.814 259 150V30C259 -110.61 143.61 -225 3 -225Z" fill="black"/>
</g>
</g>
</g>
</g>
</g>
<defs>
<clipPath id="clip0">
<rect width="16" height="16" fill="white"/>
</clipPath>
</defs>
</svg>
