<svg viewBox="0 0 512 512" fill="none" xmlns="http://www.w3.org/2000/svg">
<g>
<path d="M318.38 346.59C283.541 410.968 248.861 459.217 182.026 439.885L157.712 425.848L133.398 411.81C83.931 364.26 107.025 310.929 144.44 249.652M394.46 201.539C462.943 256.912 499.685 315.534 480.794 348.253C455.697 391.722 341.909 373.012 226.64 306.461C195.883 288.704 168.128 269.334 144.44 249.652M394.46 201.539C399.904 183.108 409.048 166.621 428.777 150.373C433.996 141.334 430.898 129.774 421.857 124.555C391.676 116.836 368.364 108.793 347.226 97.5999C326.964 84.8906 308.342 68.7229 286.567 46.4452C277.527 41.2256 265.967 44.3222 260.748 53.3617C256.541 78.5712 246.835 94.734 233.596 108.664M394.46 201.539C391.227 212.484 389.299 224.115 387.234 236.789M387.234 236.789C385.586 246.903 383.851 257.681 381.296 269.305C376.077 278.344 383.145 280 355.476 276.221C339.415 274.028 301.313 263.956 263.204 243.13C226.114 220.54 198.341 192.579 188.41 179.766C171.303 157.694 176.272 162.987 181.491 153.947C190.279 145.923 198.746 139.031 206.681 132.547M387.234 236.789C357.963 238.656 338.624 236.864 281.393 211.626C230.921 174.682 219.7 158.83 206.681 132.547M144.44 249.652C79.3531 195.57 44.9698 139.123 63.3702 107.253C82.2607 74.5337 151.399 77.0426 233.596 108.664M144.44 249.652C144.963 248.795 145.489 247.937 146.018 247.077M233.596 108.664C225.733 116.937 216.624 124.422 206.681 132.547" stroke="currentColor" stroke-width="34"/>
</g>
</svg>