<svg viewBox="0 0 16 16" fill="none" xmlns="http://www.w3.org/2000/svg">
<g id="workout">
<path id="workout" d="M14.9677 7.00003V4.7501C14.9678 4.57392 14.9199 4.40085 14.8287 4.24843C14.7375 4.096 14.6063 3.96964 14.4485 3.88215C14.2906 3.79466 14.1117 3.74915 13.9298 3.75024C13.748 3.75133 13.5696 3.79897 13.4129 3.88835C13.3835 3.6344 13.2548 3.40101 13.0532 3.2361C12.8517 3.07118 12.5927 2.98726 12.3293 3.00157C12.0659 3.01587 11.8182 3.12732 11.637 3.31302C11.4558 3.49872 11.3548 3.74458 11.3548 4.00012V7.00003H4.64516V4.00012C4.64484 3.74482 4.54372 3.4993 4.36254 3.31389C4.18136 3.12849 3.93383 3.01724 3.67069 3.00295C3.40756 2.98865 3.14874 3.0724 2.9473 3.23702C2.74585 3.40165 2.61704 3.63468 2.58726 3.88835C2.43053 3.79893 2.25218 3.75126 2.07029 3.75015C1.88841 3.74904 1.70946 3.79454 1.55158 3.88204C1.3937 3.96953 1.26251 4.09591 1.1713 4.24835C1.0801 4.4008 1.03213 4.5739 1.03226 4.7501V7.00003C0.758486 7.00003 0.495927 7.10538 0.302341 7.29292C0.108755 7.48045 0 7.73479 0 8C0 8.26521 0.108755 8.51955 0.302341 8.70708C0.495927 8.89462 0.758486 8.99997 1.03226 8.99997V11.2499C1.03213 11.4261 1.0801 11.5992 1.1713 11.7516C1.26251 11.9041 1.3937 12.0305 1.55158 12.118C1.70946 12.2055 1.88841 12.251 2.07029 12.2499C2.25218 12.2487 2.43053 12.2011 2.58726 12.1117C2.61704 12.3653 2.74585 12.5984 2.9473 12.763C3.14874 12.9276 3.40756 13.0113 3.67069 12.9971C3.93383 12.9828 4.18136 12.8715 4.36254 12.6861C4.54372 12.5007 4.64484 12.2552 4.64516 11.9999V8.99997H11.3548V11.9999C11.3548 12.2554 11.4558 12.5013 11.637 12.687C11.8182 12.8727 12.0659 12.9841 12.3293 12.9984C12.5927 13.0127 12.8517 12.9288 13.0532 12.7639C13.2548 12.599 13.3835 12.3656 13.4129 12.1117C13.5696 12.201 13.748 12.2487 13.9298 12.2498C14.1117 12.2508 14.2906 12.2053 14.4485 12.1179C14.6063 12.0304 14.7375 11.904 14.8287 11.7516C14.9199 11.5991 14.9678 11.4261 14.9677 11.2499V8.99997C15.2415 8.99997 15.5041 8.89462 15.6977 8.70708C15.8912 8.51955 16 8.26521 16 8C16 7.73479 15.8912 7.48045 15.6977 7.29292C15.5041 7.10538 15.2415 7.00003 14.9677 7.00003ZM1.03226 8.49998C0.895372 8.49998 0.764093 8.44731 0.6673 8.35354C0.570507 8.25978 0.516129 8.1326 0.516129 8C0.516129 7.8674 0.570507 7.74022 0.6673 7.64646C0.764093 7.55269 0.895372 7.50002 1.03226 7.50002V8.49998ZM2.06452 11.7499C1.92768 11.7497 1.79649 11.697 1.69974 11.6033C1.60298 11.5095 1.54855 11.3825 1.54839 11.2499V4.7501C1.54839 4.6175 1.60276 4.49032 1.69956 4.39656C1.79635 4.30279 1.92763 4.25012 2.06452 4.25012C2.2014 4.25012 2.33268 4.30279 2.42947 4.39656C2.52627 4.49032 2.58065 4.6175 2.58065 4.7501V11.2499C2.58048 11.3825 2.52605 11.5095 2.4293 11.6033C2.33254 11.697 2.20135 11.7497 2.06452 11.7499ZM4.12903 11.9999C4.12903 12.1325 4.07465 12.2597 3.97786 12.3534C3.88107 12.4472 3.74979 12.4999 3.6129 12.4999C3.47602 12.4999 3.34474 12.4472 3.24794 12.3534C3.15115 12.2597 3.09677 12.1325 3.09677 11.9999V4.00012C3.09677 3.86752 3.15115 3.74035 3.24794 3.64658C3.34474 3.55282 3.47602 3.50014 3.6129 3.50014C3.74979 3.50014 3.88107 3.55282 3.97786 3.64658C4.07465 3.74035 4.12903 3.86752 4.12903 4.00012V11.9999ZM4.64516 8.49998V7.50002H11.3548V8.49998H4.64516ZM12.9032 11.9999C12.9032 12.1325 12.8488 12.2597 12.7521 12.3534C12.6553 12.4472 12.524 12.4999 12.3871 12.4999C12.2502 12.4999 12.1189 12.4472 12.0221 12.3534C11.9253 12.2597 11.871 12.1325 11.871 11.9999V4.00012C11.871 3.86752 11.9253 3.74035 12.0221 3.64658C12.1189 3.55282 12.2502 3.50014 12.3871 3.50014C12.524 3.50014 12.6553 3.55282 12.7521 3.64658C12.8488 3.74035 12.9032 3.86752 12.9032 4.00012V11.9999ZM14.4516 11.2499C14.4516 11.3825 14.3972 11.5097 14.3004 11.6034C14.2036 11.6972 14.0724 11.7499 13.9355 11.7499C13.7986 11.7499 13.6673 11.6972 13.5705 11.6034C13.4737 11.5097 13.4194 11.3825 13.4194 11.2499V4.7501C13.4194 4.6175 13.4737 4.49032 13.5705 4.39656C13.6673 4.30279 13.7986 4.25012 13.9355 4.25012C14.0724 4.25012 14.2036 4.30279 14.3004 4.39656C14.3972 4.49032 14.4516 4.6175 14.4516 4.7501V11.2499ZM14.9677 8.49998V7.50002C15.1046 7.50002 15.2359 7.55269 15.3327 7.64646C15.4295 7.74022 15.4839 7.8674 15.4839 8C15.4839 8.1326 15.4295 8.25978 15.3327 8.35354C15.2359 8.44731 15.1046 8.49998 14.9677 8.49998Z" fill="white"/>
</g>
</svg>
