<svg viewBox="0 0 612 612" fill="none" xmlns="http://www.w3.org/2000/svg">
<g id="work-icon">
<path id="photo" d="M554.625 64H57.375C25.6873 64 0 89.6873 0 121.375V465.625C0 497.313 25.6873 523 57.375 523H554.625C586.313 523 612 497.313 612 465.625V121.375C612 89.6873 586.313 64 554.625 64ZM547.453 465.625H64.5469C62.6448 465.625 60.8206 464.869 59.4756 463.524C58.1306 462.179 57.375 460.355 57.375 458.453V128.547C57.375 126.645 58.1306 124.821 59.4756 123.476C60.8206 122.131 62.6448 121.375 64.5469 121.375H547.453C549.355 121.375 551.179 122.131 552.524 123.476C553.869 124.821 554.625 126.645 554.625 128.547V458.453C554.625 460.355 553.869 462.179 552.524 463.524C551.179 464.869 549.355 465.625 547.453 465.625ZM114.75 408.25H497.25V312.625L392.642 208.017C387.041 202.416 377.959 202.416 372.357 208.017L229.5 350.875L182.267 303.642C176.666 298.041 167.584 298.041 161.982 303.642L114.75 350.875V408.25Z" fill="currentColor"/>
<path id="moon" d="M105.188 217C105.188 190.594 126.594 169.188 153 169.188C156.673 169.188 160.249 169.602 163.685 170.386C148.318 175.061 137 191.025 137 210C137 232.644 153.118 251 173 251C179.873 251 186.297 248.806 191.76 245C183.074 257.003 168.949 264.812 153 264.812C126.594 264.812 105.188 243.406 105.188 217Z" fill="currentColor"/>
<path id="sun" d="M105.188 217C105.188 190.594 126.594 169.188 153 169.188C179.406 169.188 200.812 190.594 200.812 217C200.812 243.406 179.406 264.812 153 264.812C126.594 264.812 105.188 243.406 105.188 217Z" fill="currentColor"/>
</g>
</svg>
