<svg viewBox="0 0 512 512" fill="none" xmlns="http://www.w3.org/2000/svg">
<path d="M154.397 231.981L327.603 331.981M184.397 180.019L357.603 280.019M373.952 410.702C361.277 403.384 356.934 387.177 364.252 374.502L412.752 290.498C420.07 277.823 436.277 273.48 448.952 280.798C461.626 288.116 465.969 304.323 458.651 316.998L410.151 401.002C402.833 413.677 386.626 418.02 373.952 410.702ZM299.552 433.565C286.877 426.248 282.535 410.04 289.853 397.366L395.353 214.634C402.67 201.96 418.877 197.617 431.552 204.935C444.227 212.252 448.57 228.46 441.252 241.134L335.752 423.866C328.434 436.54 312.227 440.883 299.552 433.565ZM63.0484 231.202C75.7232 238.52 91.9303 234.177 99.2481 221.502L147.748 137.498C155.066 124.823 150.723 108.616 138.048 101.298C125.374 93.9803 109.167 98.323 101.849 110.998L53.3488 195.002C46.031 207.677 50.3737 223.884 63.0484 231.202ZM80.4478 307.065C93.1225 314.383 109.33 310.04 116.647 297.366L222.147 114.634C229.465 101.96 225.123 85.7524 212.448 78.4346C199.773 71.1169 183.566 75.4596 176.248 88.1343L70.7481 270.866C63.4303 283.54 67.773 299.748 80.4478 307.065Z" stroke="currentColor" stroke-width="34"/>
</svg>